<?xml version="1.0" standalone="no"?>
<!DOCTYPE svg PUBLIC "-//W3C//DTD SVG 20010904//EN"
 "http://www.w3.org/TR/2001/REC-SVG-20010904/DTD/svg10.dtd">
<svg version="1.0" xmlns="http://www.w3.org/2000/svg"
 width="994.000000pt" height="994.000000pt" viewBox="0 0 994.000000 994.000000"
 preserveAspectRatio="xMidYMid meet">
<metadata>
Created by potrace 1.11, written by Peter Selinger 2001-2013
</metadata>
<g transform="translate(0.000000,994.000000) scale(0.100000,-0.100000)"
fill="#000000" stroke="none">
<path d="M5186 9925 c-3 -9 -6 -18 -6 -20 0 -2 19 -13 43 -23 23 -11 51 -29
61 -41 21 -23 55 -137 62 -206 2 -22 7 -56 11 -75 9 -48 12 -70 14 -105 0 -16
4 -43 9 -60 5 -16 11 -67 15 -112 3 -45 10 -95 15 -112 12 -43 3 -67 -31 -81
-38 -16 -37 -36 4 -49 35 -11 230 -21 259 -13 27 7 22 25 -13 44 -29 17 -30
19 -16 45 8 16 24 60 36 98 41 136 73 230 88 258 8 16 16 39 19 50 2 12 17 56
33 97 16 41 37 96 46 123 14 38 24 49 48 55 35 9 57 36 42 51 -6 5 -32 13 -60
16 -143 19 -163 21 -174 17 -22 -7 -10 -32 28 -58 40 -26 67 -74 50 -91 -4 -4
-24 -60 -43 -122 -20 -63 -51 -153 -71 -202 -19 -48 -35 -95 -35 -106 0 -10
-9 -36 -20 -58 -11 -22 -20 -45 -20 -53 0 -7 -8 -12 -17 -10 -12 2 -20 16 -23
43 -3 22 -9 45 -12 51 -4 5 -9 50 -12 98 -3 48 -10 95 -15 104 -4 9 -6 22 -4
29 2 7 -1 21 -7 33 -6 11 -13 47 -16 81 -2 33 -11 85 -19 117 -8 31 -12 64 -9
74 6 20 42 41 86 52 16 4 25 11 22 19 -11 29 -50 40 -153 42 -58 2 -129 6
-157 10 -43 6 -52 4 -58 -10z"/>
<path d="M4280 9912 c-30 -15 -36 -24 -45 -73 -7 -30 -15 -60 -18 -66 -4 -7
-9 -35 -12 -63 -2 -28 -9 -67 -14 -88 -5 -20 -15 -58 -22 -85 -6 -26 -16 -50
-21 -53 -5 -3 -23 10 -41 28 -59 61 -132 143 -167 189 -51 66 -104 109 -133
109 -15 0 -41 -6 -59 -14 -18 -8 -48 -20 -65 -26 -44 -17 -43 -40 1 -40 36 0
58 -19 63 -53 2 -12 7 -33 12 -47 8 -20 21 -87 26 -135 4 -33 18 -101 23 -109
2 -5 6 -23 8 -40 1 -17 6 -42 9 -56 6 -22 21 -101 41 -220 3 -19 10 -42 14
-50 11 -21 -5 -56 -34 -76 -29 -18 -34 -43 -11 -45 8 -1 21 -2 28 -3 6 -1 30
6 52 15 22 9 61 20 88 24 51 7 69 35 22 35 -32 0 -85 26 -86 43 -1 18 -7 47
-19 97 -6 25 -17 74 -25 110 -7 36 -18 88 -24 115 -7 28 -14 62 -16 77 -3 15
-9 38 -14 51 -6 14 -8 27 -5 29 2 3 -2 20 -10 38 -14 35 -11 70 8 70 6 0 20
-12 31 -27 11 -15 39 -49 63 -77 23 -27 42 -53 42 -57 0 -4 13 -21 28 -37 16
-17 48 -60 72 -96 24 -36 49 -67 56 -70 22 -8 51 40 52 86 1 24 10 79 22 122
11 44 20 91 20 105 0 25 34 111 44 111 3 0 19 -46 37 -102 17 -57 35 -112 40
-123 4 -11 13 -40 20 -65 6 -25 22 -81 35 -125 12 -44 25 -94 27 -111 6 -39
-20 -75 -64 -89 -18 -6 -35 -17 -37 -24 -5 -14 45 -12 168 9 36 5 92 13 125
16 76 7 85 10 85 29 0 9 -9 15 -25 15 -57 0 -96 36 -110 100 -4 19 -13 47 -21
61 -7 15 -15 39 -18 54 -3 15 -20 71 -38 124 -18 53 -33 98 -33 101 -1 3 -7
18 -13 33 -7 16 -12 39 -12 53 0 14 -7 39 -16 55 -8 17 -13 33 -10 36 2 3 -4
25 -15 50 -22 51 -25 96 -6 110 6 6 24 13 40 17 30 7 36 30 11 40 -32 12 -120
6 -154 -12z"/>
<path d="M5968 9853 c-32 -8 -20 -41 21 -62 52 -27 64 -66 42 -137 -10 -34
-28 -116 -36 -159 -2 -16 -13 -57 -24 -90 -11 -33 -32 -105 -46 -160 -49 -181
-53 -188 -117 -206 -27 -7 -38 -15 -36 -26 3 -17 68 -40 130 -48 21 -2 47 -9
59 -15 24 -13 53 -6 47 12 -3 7 -18 19 -34 28 -59 33 -59 53 -4 240 10 36 24
90 30 120 13 63 71 283 76 289 2 2 6 2 9 -1 8 -8 46 -119 51 -148 3 -14 9 -36
14 -50 5 -14 11 -38 14 -55 2 -16 12 -57 21 -90 22 -78 44 -161 55 -205 57
-234 59 -240 79 -240 27 0 36 17 55 92 9 37 23 83 31 101 8 19 12 37 9 39 -2
3 0 18 7 34 6 16 13 36 15 44 3 15 82 243 85 248 1 1 2 5 3 10 1 4 10 34 21
67 10 33 20 66 21 74 4 23 17 29 67 35 58 7 67 12 67 35 0 20 -15 29 -120 66
-41 15 -89 35 -107 43 -26 13 -34 13 -47 3 -24 -20 -19 -40 11 -52 36 -14 63
-38 74 -68 9 -22 -19 -130 -78 -301 -9 -25 -24 -67 -33 -94 -18 -54 -33 -67
-45 -39 -8 19 -33 112 -41 153 -3 14 -9 34 -14 45 -5 11 -11 31 -14 45 -6 32
-30 117 -56 205 -26 87 -25 82 -35 129 -9 44 -35 59 -124 70 -30 4 -62 11 -70
15 -9 4 -24 6 -33 4z"/>
<path d="M3550 9739 c-19 -4 -57 -17 -85 -28 -58 -22 -68 -50 -22 -62 47 -13
54 -25 61 -112 4 -45 11 -98 16 -117 5 -19 11 -53 14 -75 3 -22 12 -80 21
-130 20 -111 28 -235 15 -235 -10 0 -18 8 -58 62 -15 20 -54 70 -88 110 -33
40 -74 93 -91 118 -17 25 -60 76 -96 113 -35 38 -72 82 -81 98 -17 28 -17 29
8 53 28 25 34 51 13 59 -12 4 -152 -43 -183 -61 -57 -35 -95 -65 -91 -75 2 -8
22 -11 52 -9 30 1 57 -4 71 -13 13 -8 65 -70 116 -138 51 -67 100 -129 110
-137 9 -8 24 -27 31 -42 14 -29 53 -76 144 -180 65 -74 71 -93 44 -122 -25
-27 -27 -56 -4 -56 10 0 45 13 78 29 33 15 84 39 113 52 29 12 55 26 58 30 2
4 -11 16 -29 27 -28 16 -35 29 -47 78 -8 32 -15 70 -16 84 -1 14 -5 50 -9 80
-3 30 -8 73 -11 95 -2 21 -7 47 -10 58 -3 10 -8 34 -10 55 -9 76 -12 98 -23
162 -18 107 -15 126 24 169 33 36 34 40 20 55 -9 9 -17 16 -18 15 -1 -1 -18
-5 -37 -10z"/>
<path d="M6754 9608 c-4 -7 11 -27 39 -51 32 -26 47 -47 47 -63 0 -26 -5 -38
-101 -249 -49 -109 -69 -156 -69 -165 0 -5 -13 -35 -29 -67 -16 -32 -42 -84
-57 -116 -32 -68 -34 -69 -88 -73 -22 -1 -44 -3 -48 -3 -28 -3 41 -71 71 -71
4 0 52 -22 106 -50 54 -27 104 -50 111 -50 24 0 24 18 0 47 -37 45 -40 68 -16
141 12 37 26 74 31 82 19 32 60 125 66 149 3 14 17 48 29 75 13 28 24 54 24
58 0 5 23 56 52 114 54 111 61 118 136 130 33 5 41 1 73 -30 34 -33 36 -38 33
-93 -3 -76 -12 -131 -24 -154 -6 -10 -12 -42 -14 -71 -2 -29 -13 -93 -24 -143
-11 -49 -28 -126 -37 -170 -9 -44 -18 -89 -21 -100 -2 -11 -7 -35 -10 -53 -7
-36 -14 -41 -60 -46 -36 -4 -43 -29 -12 -42 74 -33 121 -60 168 -95 47 -35 55
-38 68 -25 13 13 12 18 -7 42 -11 14 -21 33 -21 42 0 20 116 148 282 312 240
236 221 222 290 218 49 -2 62 1 74 16 16 23 12 31 -29 53 -26 13 -77 48 -132
90 -20 16 -63 32 -69 26 -12 -12 -5 -37 19 -69 36 -48 32 -76 -18 -126 -179
-180 -389 -380 -393 -375 -10 9 -12 41 -4 57 4 8 11 42 15 75 3 32 9 63 12 68
3 5 7 35 9 66 2 31 7 79 13 106 32 163 54 251 64 262 9 10 22 9 60 -5 41 -15
49 -15 57 -3 12 20 -11 50 -58 78 -72 43 -325 164 -395 189 -20 7 -52 20 -70
28 -103 47 -131 54 -143 34z"/>
<path d="M2664 9364 c-49 -25 -109 -58 -134 -74 -25 -16 -63 -38 -85 -49 -128
-66 -135 -88 -28 -83 l71 4 25 -44 c13 -23 48 -86 78 -138 29 -52 60 -106 70
-120 9 -14 34 -58 55 -98 43 -79 53 -98 102 -186 39 -69 37 -98 -9 -122 -43
-22 -70 -12 -131 46 -29 28 -56 50 -61 50 -4 0 -32 18 -61 40 -29 22 -58 40
-64 40 -6 0 -19 10 -29 23 -16 21 -122 101 -222 167 -20 14 -56 42 -80 62 -45
38 -46 41 -26 106 11 33 -4 28 -90 -30 -43 -29 -86 -57 -94 -63 -53 -33 -81
-58 -81 -71 0 -16 27 -18 63 -5 33 13 59 -6 81 -61 17 -40 22 -51 45 -95 32
-62 91 -197 91 -209 0 -8 11 -36 24 -62 40 -76 96 -202 102 -231 11 -43 6
-103 -8 -118 -8 -7 -28 -17 -46 -22 -31 -9 -35 -7 -116 72 -46 45 -107 109
-136 142 -100 115 -195 219 -227 250 -18 16 -39 43 -47 59 -14 27 -13 32 9 74
44 82 13 83 -87 3 -96 -78 -162 -146 -154 -160 9 -13 53 -15 61 -2 6 11 56 6
82 -8 10 -5 52 -47 93 -92 125 -139 171 -188 273 -293 114 -117 132 -147 111
-188 -17 -32 -18 -58 -3 -58 8 0 158 136 199 180 3 3 27 24 55 45 59 48 95 84
95 98 0 5 -18 7 -43 3 -54 -8 -61 -1 -114 119 -61 137 -62 145 -13 189 23 21
62 51 87 66 l45 29 59 -40 c33 -22 59 -43 59 -47 0 -4 23 -22 50 -41 28 -19
51 -38 51 -43 1 -4 2 -14 3 -20 2 -7 -7 -30 -18 -50 -27 -52 -14 -58 34 -14
22 20 45 36 51 36 6 0 27 14 46 30 18 17 39 30 46 30 7 1 44 21 82 45 77 49
150 86 179 92 26 5 59 34 49 44 -5 4 -21 10 -38 13 -89 16 -91 17 -159 130
-10 17 -30 47 -43 67 -13 20 -28 50 -33 67 -7 27 -5 34 10 42 53 29 152 -2
243 -75 115 -91 171 -125 212 -129 47 -5 114 16 133 41 11 16 10 21 -12 39
-15 14 -33 20 -48 17 -17 -3 -42 9 -88 44 -36 26 -71 53 -78 60 -23 22 -95 62
-142 78 -61 21 -74 39 -54 78 12 22 15 52 12 111 -3 70 -7 87 -33 125 -16 24
-51 62 -78 84 -69 59 -109 59 -223 1z m90 -45 c81 -22 146 -130 146 -240 0
-50 -3 -55 -46 -96 -84 -78 -88 -74 -252 218 -31 55 -32 57 -15 78 17 21 82
50 113 51 8 0 32 -5 54 -11z m-644 -541 c23 -18 52 -40 64 -48 46 -32 166
-133 166 -139 0 -11 -73 -84 -104 -104 -15 -10 -33 -16 -40 -14 -11 4 -73 121
-97 182 -5 11 -19 47 -33 80 -35 85 -25 95 44 43z"/>
<path d="M7863 9042 c-10 -6 -8 -17 7 -47 11 -22 20 -47 20 -56 0 -15 -102
-175 -119 -189 -4 -3 -18 -21 -31 -40 -14 -19 -32 -42 -41 -50 -9 -8 -40 -46
-68 -85 -29 -38 -66 -89 -84 -113 -18 -24 -45 -57 -62 -74 -28 -27 -34 -29
-82 -25 -29 3 -55 1 -58 -3 -7 -11 62 -93 95 -113 14 -9 77 -61 140 -116 80
-70 123 -101 140 -101 26 0 42 12 182 129 61 50 75 67 67 77 -13 16 -29 9
-105 -47 -60 -44 -144 -66 -190 -49 -16 6 -31 11 -32 9 -10 -5 -92 63 -92 77
0 19 67 123 115 178 6 6 37 44 69 84 35 43 65 72 74 70 25 -5 61 -106 51 -140
-11 -39 -3 -56 24 -50 22 4 145 166 154 203 7 26 -19 34 -54 16 -40 -21 -73
-23 -111 -8 -37 15 -43 45 -14 77 15 16 64 83 127 172 24 34 60 28 105 -17 68
-67 97 -162 82 -259 -8 -46 -7 -54 8 -62 26 -14 43 12 56 86 3 14 11 45 19 67
24 68 20 77 -71 152 -46 39 -108 92 -136 119 -89 81 -155 136 -164 136 -5 0
-15 -4 -21 -8z"/>
<path d="M8360 8610 c0 -11 9 -34 20 -52 37 -61 24 -94 -70 -170 -18 -15 -120
-113 -226 -218 -106 -104 -201 -191 -211 -191 -27 -2 -26 -2 -54 5 -19 4 -29
1 -33 -10 -4 -11 22 -45 81 -107 102 -106 119 -116 109 -62 -4 20 -10 43 -13
51 -7 18 230 254 255 254 27 0 54 -54 48 -95 -3 -19 -30 -86 -60 -147 -52
-107 -83 -185 -91 -230 -5 -24 25 -86 53 -111 19 -18 20 -17 38 39 9 31 31 73
48 95 71 88 97 145 111 249 4 25 10 48 13 52 4 3 31 1 60 -5 48 -10 57 -9 95
11 83 45 136 91 162 142 37 74 34 114 -19 228 -17 37 -277 292 -297 292 -12 0
-19 -7 -19 -20z m217 -249 c12 -14 30 -40 39 -58 17 -30 17 -33 -2 -74 -23
-51 -82 -115 -121 -130 -16 -6 -43 -11 -61 -11 -61 0 -152 49 -152 82 0 10 26
42 57 72 32 29 73 68 91 86 84 80 106 85 149 33z"/>
<path d="M4885 8589 c-143 -6 -218 -15 -246 -30 -9 -5 -31 -11 -49 -14 -100
-18 -240 -73 -410 -163 -125 -66 -194 -117 -274 -203 -33 -35 -80 -86 -104
-112 -25 -27 -58 -65 -74 -84 -15 -20 -28 -33 -28 -30 0 14 30 118 59 207 50
152 39 197 -52 205 -51 5 -177 -62 -269 -142 -109 -96 -275 -336 -328 -473 -7
-19 -20 -42 -27 -52 -8 -9 -25 -76 -38 -150 -29 -164 -35 -189 -45 -183 -11 7
-29 124 -35 220 -6 115 -51 196 -115 210 -40 9 -124 -37 -162 -89 -74 -101
-145 -314 -174 -521 -3 -16 -9 -50 -14 -75 -5 -25 -12 -85 -16 -135 -4 -49 -9
-101 -10 -115 -3 -44 -5 -46 -19 -15 -23 48 -93 267 -99 308 -9 56 -43 116
-73 128 -90 34 -189 -98 -253 -337 -22 -83 -31 -174 -31 -314 0 -85 -2 -93
-15 -76 -7 11 -14 24 -14 28 0 13 -71 112 -94 130 -49 40 -97 13 -136 -75 -27
-60 -33 -123 -32 -322 0 -165 14 -278 56 -485 l24 -115 -39 45 c-22 25 -56 70
-76 100 -20 30 -40 57 -43 60 -4 3 -18 23 -32 45 -36 56 -87 105 -109 105 -53
0 -120 -219 -120 -395 -1 -70 34 -253 56 -295 8 -16 26 -58 39 -94 l23 -65
-28 14 c-33 18 -50 19 -82 4 -70 -32 -67 -305 5 -468 15 -35 28 -68 28 -72 0
-5 13 -28 30 -51 16 -22 30 -45 30 -50 0 -8 12 -28 120 -186 23 -35 41 -64 39
-65 -2 -2 -16 -9 -31 -16 -32 -16 -56 -62 -64 -123 -12 -90 88 -275 286 -531
30 -38 31 -71 3 -125 -20 -40 -24 -66 -28 -173 -4 -94 -2 -135 9 -166 13 -37
89 -156 123 -193 8 -8 29 -40 47 -72 30 -50 40 -90 51 -190 3 -27 34 -68 59
-78 35 -13 94 -5 117 16 11 10 29 34 40 54 l20 36 63 -4 c34 -2 93 1 131 7 38
5 71 8 73 6 3 -2 -4 -26 -15 -52 -16 -38 -20 -75 -22 -176 -3 -157 10 -229 46
-257 29 -23 91 -27 115 -7 17 13 43 58 58 99 6 17 17 28 29 28 17 0 19 -8 17
-87 -1 -103 13 -144 59 -173 27 -16 34 -29 43 -75 14 -71 56 -161 80 -174 24
-13 100 -17 128 -8 21 7 44 45 44 72 0 8 5 26 12 40 10 22 18 26 47 24 53 -4
68 -14 81 -56 16 -47 36 -71 76 -88 28 -12 31 -16 31 -61 -1 -65 25 -116 71
-141 60 -33 95 -37 146 -15 48 22 66 45 66 87 0 25 2 26 58 24 57 -1 218 34
237 52 15 15 33 10 58 -15 39 -39 93 -44 147 -14 l46 26 32 -29 c36 -32 80
-37 122 -15 22 13 27 12 57 -15 59 -51 108 -51 164 2 21 20 64 42 114 59 44
15 99 37 123 49 l42 21 0 -25 c0 -71 113 -103 185 -53 17 12 34 27 38 35 14
23 24 14 35 -30 19 -72 19 -81 0 -130 -10 -28 -16 -58 -12 -73 8 -29 40 -54
72 -54 29 0 94 33 124 63 37 37 75 59 82 48 3 -5 6 -50 5 -99 0 -49 4 -99 10
-110 21 -40 117 -50 167 -17 36 23 44 19 44 -25 0 -74 35 -110 110 -110 39 0
133 72 168 128 l30 48 56 -10 c31 -6 56 -14 56 -18 0 -17 84 -49 135 -52 42
-2 73 4 140 31 48 18 98 42 112 52 45 36 94 111 120 184 33 95 44 105 78 83
15 -10 43 -32 63 -50 53 -48 93 -66 133 -60 54 8 80 41 86 110 3 38 13 72 29
96 13 21 24 40 24 43 0 10 161 207 225 275 34 36 76 84 94 107 31 41 33 42 81
36 71 -8 96 2 127 50 16 23 39 51 53 62 46 37 79 74 106 122 16 27 31 50 34
53 3 3 17 21 30 40 13 19 36 48 52 64 17 17 36 56 49 98 l21 69 42 -7 c137
-25 190 17 170 138 -13 75 -11 80 122 285 30 46 54 85 54 87 0 3 5 17 12 33
13 32 14 37 21 90 3 21 9 57 13 79 7 45 -18 174 -40 209 -32 51 -22 84 46 146
10 9 18 19 18 23 0 3 13 24 28 45 16 22 39 68 52 103 12 34 31 74 41 88 28 39
72 197 65 234 -10 51 -38 78 -79 79 -21 1 -37 4 -37 7 0 11 61 123 84 153 13
18 43 70 65 117 23 46 46 89 50 95 11 14 58 160 69 218 11 54 9 228 -2 270 -5
17 -17 29 -32 33 -52 13 -94 -15 -151 -98 -14 -21 -30 -38 -34 -38 -10 0 6 33
30 62 19 24 57 116 86 208 71 223 68 430 -10 606 -39 89 -74 71 -170 -88 -94
-155 -189 -279 -171 -222 3 11 8 37 11 59 3 22 10 65 15 95 5 30 12 73 15 95
3 22 9 65 14 95 10 60 7 440 -3 505 -4 22 -21 61 -37 87 -26 40 -36 48 -61 48
-48 0 -101 -67 -147 -184 -7 -16 -14 -26 -17 -23 -3 2 -7 51 -9 108 -9 230
-37 360 -104 486 -53 100 -92 133 -153 133 -40 -1 -63 -28 -79 -97 -74 -314
-117 -445 -120 -362 -3 68 -6 95 -14 159 -5 36 -8 69 -6 75 2 9 -14 85 -45
205 -7 30 -16 69 -18 85 -8 61 -80 242 -119 298 -28 41 -53 65 -87 82 -75 38
-93 38 -135 2 -29 -26 -39 -44 -51 -96 -8 -36 -14 -81 -14 -100 2 -51 -11
-182 -20 -206 -9 -23 -14 -8 -55 177 -68 304 -335 657 -573 757 -85 35 -147
27 -169 -22 -12 -25 3 -112 23 -141 8 -11 14 -27 14 -36 0 -8 7 -28 15 -44 21
-39 12 -44 -17 -10 -99 118 -156 174 -245 240 -68 51 -241 144 -267 144 -7 0
-55 18 -106 41 -52 22 -119 47 -149 55 -88 23 -324 33 -546 23z m43 -91 c5 -7
11 -49 12 -93 5 -148 1 -155 -63 -127 -36 16 -77 57 -69 70 7 9 -1 22 -13 22
-8 0 -15 -8 -15 -18 0 -10 -6 -26 -12 -35 -12 -15 -16 -15 -45 -1 -17 9 -37
29 -43 45 -14 32 -29 38 -31 12 -1 -10 -3 -31 -4 -48 -1 -16 -6 -46 -10 -65
-11 -44 -12 -49 -14 -56 0 -3 -15 3 -32 13 -31 18 -59 59 -59 88 0 26 -30 17
-48 -15 -9 -16 -20 -30 -23 -30 -18 0 -89 84 -89 106 0 15 49 43 95 55 17 4
54 16 83 27 29 12 67 22 85 23 18 2 37 7 43 11 31 23 236 35 252 16z m389 1
c42 -6 85 -15 94 -19 9 -5 27 -11 40 -14 13 -3 49 -14 79 -25 30 -12 55 -21
56 -21 1 0 4 -10 7 -22 7 -25 -36 -134 -64 -163 -12 -13 -19 -15 -19 -6 0 24
-32 81 -46 81 -14 0 -15 -1 -19 -35 -2 -25 -23 -65 -33 -65 -7 0 -20 12 -89
79 -28 27 -43 50 -43 66 0 32 -28 45 -46 20 -15 -20 -59 -45 -80 -45 -7 0 -16
11 -20 25 -9 35 -27 26 -37 -18 -7 -27 -16 -38 -39 -46 -17 -6 -36 -11 -43
-11 -10 0 -12 70 -6 197 1 12 9 24 19 26 34 9 212 7 289 -4z m473 -171 c19 -8
55 -32 78 -52 24 -20 48 -36 54 -36 14 0 170 -161 187 -193 13 -24 12 -31 -5
-69 -22 -49 -85 -118 -108 -118 -18 0 -19 4 -7 46 8 28 -9 160 -24 184 -8 13
-33 1 -40 -20 -13 -40 -114 -110 -160 -110 -22 0 -9 143 18 188 27 45 11 60
-34 29 -60 -40 -111 -68 -150 -81 -35 -12 -39 -12 -44 5 -6 19 27 103 45 114
5 3 10 13 10 20 0 22 59 109 78 116 18 7 47 0 102 -23z m-1449 -43 c44 -64 58
-124 36 -156 l-15 -21 -33 31 c-36 35 -65 41 -56 14 3 -10 10 -33 15 -50 10
-31 9 -33 -13 -33 -39 0 -73 20 -101 61 -47 68 -76 44 -37 -30 23 -44 28 -80
14 -114 -6 -17 -9 -16 -44 8 -28 18 -45 23 -64 19 -21 -6 -31 0 -59 30 -39 43
-38 50 28 113 60 60 130 109 194 140 30 14 57 29 60 34 13 22 42 4 75 -46z
m907 3 c21 -21 13 -33 -48 -62 -66 -31 -118 -78 -127 -114 -9 -37 3 -36 54 4
46 37 67 51 123 81 36 19 74 16 95 -8 19 -19 19 -21 0 -55 -10 -20 -33 -42
-49 -50 -78 -37 -131 -67 -141 -78 -5 -7 -28 -24 -51 -38 -22 -14 -48 -42 -57
-61 -20 -40 -38 -51 -62 -33 -14 10 -16 32 -17 128 -1 161 13 182 177 267 66
34 85 37 103 19z m-1548 -26 c0 -10 -9 -45 -21 -77 -12 -33 -23 -67 -24 -75
-17 -75 -50 -216 -61 -265 -7 -33 -16 -76 -19 -95 -4 -19 -11 -49 -16 -67 -6
-18 -14 -83 -18 -145 -9 -123 -6 -517 4 -549 4 -13 0 -28 -11 -41 -11 -11 -28
-42 -39 -70 -11 -27 -24 -51 -30 -51 -12 -2 -31 72 -42 158 -10 75 -9 401 0
515 8 95 -2 92 -28 -9 -37 -144 -48 -397 -26 -595 6 -48 22 -114 37 -152 14
-36 26 -76 26 -88 0 -102 -6 -188 -14 -192 -5 -3 -30 8 -56 24 -26 16 -64 35
-85 42 -26 8 -41 20 -48 38 -5 15 -25 63 -43 107 -41 97 -74 198 -81 245 -18
127 -22 180 -23 300 -1 267 71 490 244 755 67 103 202 233 289 280 68 36 85
37 85 7z m2638 -11 c144 -73 299 -250 409 -466 48 -94 98 -232 107 -293 3 -24
8 -47 11 -52 20 -32 26 -342 10 -445 -20 -123 -55 -242 -96 -330 -14 -31 -28
-44 -56 -54 -33 -12 -82 -41 -129 -76 -7 -5 -16 -7 -19 -3 -22 21 -23 163 -2
204 15 29 31 83 42 139 6 36 7 307 0 385 -10 121 -55 313 -77 326 -6 4 -8 -1
-5 -12 29 -106 41 -525 18 -650 -16 -83 -26 -87 -55 -23 -15 34 -38 66 -60 83
-20 15 -34 30 -32 34 2 4 7 39 11 77 4 39 9 73 12 77 5 9 4 223 -2 288 -2 25
-6 82 -9 127 -3 46 -10 102 -17 125 -6 24 -13 54 -16 68 -2 14 -13 57 -24 95
-11 39 -22 80 -24 92 -2 12 -11 45 -20 72 -9 27 -18 62 -21 78 -3 15 -15 51
-27 78 -20 44 -23 59 -18 80 3 12 36 3 89 -24z m-1558 -4 c8 -4 27 -8 42 -10
15 -1 36 -11 46 -21 19 -16 39 -79 33 -101 -2 -5 -3 -56 -3 -113 0 -97 -10
-134 -25 -95 -8 20 -43 52 -58 53 -6 0 -18 9 -27 19 -9 10 -22 23 -30 27 -18
12 -66 78 -77 106 -20 53 28 75 88 41 33 -20 56 -9 27 13 -57 41 -77 66 -66
79 11 13 22 14 50 2z m-304 -119 c-19 -112 -18 -127 4 -172 20 -41 53 -67 68
-52 3 4 -5 20 -17 37 -19 26 -22 39 -17 80 7 57 34 119 53 119 7 0 22 -18 33
-40 11 -22 63 -81 115 -132 76 -73 99 -102 115 -145 11 -30 20 -62 20 -71 0
-10 7 -27 15 -38 15 -19 16 -18 36 9 24 32 44 34 67 8 18 -20 70 -40 89 -34 8
3 9 13 3 34 -21 74 68 183 201 248 84 40 113 65 173 144 34 46 44 40 53 -34 7
-62 7 -92 -2 -168 -6 -48 -12 -59 -57 -103 -28 -27 -62 -57 -77 -66 -14 -9
-34 -27 -44 -39 -10 -13 -38 -37 -63 -54 -24 -16 -44 -36 -44 -43 0 -21 33
-25 76 -10 21 7 42 10 45 6 4 -4 9 -40 12 -80 6 -73 18 -102 43 -102 16 0 33
30 27 47 -6 18 30 33 73 30 33 -2 40 2 52 26 12 24 41 38 43 20 0 -5 2 -20 3
-36 1 -15 11 -34 24 -43 27 -19 28 -38 2 -71 -24 -31 -25 -49 -4 -116 25 -82
36 -106 62 -145 35 -53 41 -135 13 -190 -16 -31 -27 -42 -44 -42 -35 1 -99 18
-106 29 -24 38 -176 36 -263 -4 -29 -13 -60 -23 -68 -21 -51 10 -77 22 -98 47
-13 16 -40 33 -60 39 -20 5 -43 14 -50 18 -20 13 -30 63 -19 102 17 65 19 100
8 114 -19 22 -49 7 -57 -28 -10 -40 -9 -34 -17 -87 -22 -135 -21 -132 -66
-163 -49 -34 -127 -43 -193 -23 -67 21 -112 15 -207 -26 -100 -44 -123 -45
-157 -11 -21 20 -25 32 -21 62 10 73 24 118 54 172 31 58 57 156 54 203 -1 16
-10 45 -20 65 -21 43 -14 98 15 119 22 16 29 16 93 2 62 -13 83 -3 112 53 46
89 26 167 -59 230 -60 44 -92 106 -93 182 -2 76 38 186 68 186 3 0 2 -19 -1
-42z m1218 -60 c11 -43 6 -77 -16 -103 -26 -28 -128 -68 -142 -55 -15 15 4 80
32 110 24 25 96 70 113 70 4 0 9 -10 13 -22z m-1385 -50 c11 -7 21 -18 21 -25
0 -6 11 -25 25 -41 51 -61 25 -85 -54 -48 -46 21 -57 32 -82 81 l-29 57 49 -5
c27 -3 58 -11 70 -19z m-376 -9 c51 -27 65 -47 56 -87 -5 -20 -11 -50 -14 -66
-6 -27 -7 -28 -52 -21 -25 4 -56 12 -70 18 -17 8 -27 7 -35 -1 -15 -15 2 -28
90 -74 54 -28 62 -36 60 -58 -3 -23 -7 -25 -46 -24 -27 0 -53 9 -72 22 -28 21
-60 21 -60 0 0 -5 16 -24 36 -43 37 -35 37 -41 2 -87 -12 -17 -15 -17 -43 2
-16 11 -39 25 -50 32 -52 34 -54 77 -8 158 14 25 39 69 54 98 35 68 96 142
115 142 9 0 25 -5 37 -11z m2017 -67 c0 -59 -35 -136 -87 -193 -43 -45 -65
-60 -116 -78 -35 -11 -71 -21 -81 -21 -9 0 -45 -10 -79 -21 -58 -21 -106 -32
-184 -46 l-33 -5 0 48 c0 61 21 96 93 158 74 65 91 72 208 91 105 16 160 38
218 86 39 32 61 25 61 -19z m249 -27 c12 -25 25 -45 30 -45 11 0 40 -70 47
-117 3 -20 14 -52 24 -70 21 -40 17 -91 -9 -113 -23 -20 -158 -66 -167 -58 -3
4 26 43 65 86 39 43 71 82 71 85 0 13 -45 7 -64 -8 -11 -8 -27 -15 -37 -15
-33 0 -29 107 6 150 13 16 10 40 -6 40 -4 0 -15 -13 -24 -30 -9 -16 -21 -30
-27 -30 -16 0 -48 31 -48 46 0 14 97 124 110 124 4 0 17 -20 29 -45z m-1996
-54 c18 -5 67 -17 109 -26 61 -13 85 -23 114 -51 21 -18 42 -34 46 -34 16 0
37 -66 30 -91 -17 -57 -27 -64 -94 -65 -35 -1 -81 -6 -104 -11 -51 -13 -127 5
-185 44 -55 36 -87 107 -84 183 3 94 4 99 25 120 l21 21 45 -40 c25 -22 60
-44 77 -50z m1826 -94 c12 -16 5 -27 -18 -27 -24 0 -44 16 -37 29 10 15 41 14
55 -2z m-79 -37 c0 -11 -10 -26 -22 -34 -23 -14 -88 -31 -88 -23 0 2 15 20 33
40 36 40 77 50 77 17z m1201 8 c45 -38 123 -186 138 -262 5 -22 21 -90 35
-151 62 -256 65 -282 67 -515 1 -117 -3 -165 -15 -197 -8 -24 -13 -43 -11 -43
2 0 -10 -37 -27 -82 -17 -46 -36 -96 -42 -113 -17 -46 -73 -139 -96 -160 -20
-18 -21 -18 -64 3 -50 25 -74 27 -101 9 -30 -20 -50 -26 -63 -18 -12 7 -10 13
47 163 12 31 23 65 25 75 2 10 15 57 29 103 24 81 40 147 37 152 -1 2 4 16 10
33 21 55 40 183 38 250 -2 68 -14 94 -22 53 -8 -39 -46 -202 -51 -218 -2 -8
-15 -58 -28 -110 -14 -52 -32 -113 -40 -135 -8 -22 -20 -60 -27 -85 -26 -93
-84 -260 -89 -255 -2 3 -6 31 -7 63 -2 31 -6 82 -10 112 -5 30 -9 62 -9 70 -1
8 -9 30 -19 47 -21 41 -20 58 4 112 11 24 22 53 25 65 4 20 26 89 85 271 17
50 32 113 34 142 2 29 7 57 11 63 3 5 8 38 10 72 10 147 44 382 72 481 5 20
33 22 54 5z m-4298 -80 c19 -69 28 -106 34 -143 2 -16 8 -46 13 -65 5 -19 11
-55 15 -80 3 -25 8 -61 10 -80 3 -19 7 -57 10 -85 3 -27 8 -58 11 -67 5 -17
11 -43 20 -93 7 -38 33 -116 43 -130 8 -10 20 -49 28 -89 2 -10 17 -50 33 -90
17 -39 30 -75 30 -80 0 -4 12 -35 27 -68 l26 -59 -18 -57 c-39 -124 -50 -213
-31 -269 4 -13 3 -23 -2 -23 -12 0 -97 212 -116 290 -2 8 -14 40 -26 70 -12
30 -24 65 -26 78 -3 12 -14 48 -26 80 -12 31 -22 62 -23 67 0 8 -26 103 -61
224 -8 25 -15 5 -18 -53 -3 -58 18 -180 47 -271 61 -189 124 -369 148 -422 45
-96 38 -120 -25 -88 -38 20 -69 19 -116 -5 -22 -11 -46 -20 -54 -20 -16 0 -74
77 -109 147 -29 56 -90 202 -93 220 -1 7 -9 34 -18 60 -9 26 -15 66 -15 88 1
22 1 105 0 185 -1 162 2 224 17 290 6 25 14 65 17 90 4 24 9 48 11 52 5 7 23
95 31 148 5 33 10 50 43 125 7 17 15 36 16 44 3 17 63 102 84 118 31 25 48 15
63 -39z m3232 -32 c-5 -124 -75 -181 -220 -181 -139 1 -179 25 -65 39 44 5 71
17 67 29 -3 8 -34 11 -104 9 -108 -4 -131 5 -97 38 12 12 60 27 129 41 118 24
173 44 233 84 33 22 38 23 48 10 7 -9 11 -40 9 -69z m-2099 -22 c19 -9 34 -20
34 -24 0 -14 82 -41 133 -45 82 -6 135 -57 99 -93 -17 -17 -34 -19 -138 -18
-125 2 -160 12 -211 59 -48 43 -22 121 45 136 2 1 19 -6 38 -15z m-226 -70
c29 -13 58 -24 66 -24 8 0 19 -11 26 -25 9 -19 8 -29 -4 -47 -14 -20 -24 -23
-79 -23 -35 0 -66 -4 -69 -10 -2 -5 22 -22 53 -37 31 -15 57 -33 57 -40 0 -7
7 -26 15 -42 20 -37 8 -49 -32 -34 -25 9 -35 9 -47 -1 -23 -19 -3 -40 45 -47
36 -6 55 -26 43 -45 -7 -12 -46 -12 -77 0 -13 5 -41 12 -63 15 -67 11 -84 29
-84 89 0 30 9 70 20 95 14 32 17 49 10 62 -14 27 -12 56 4 70 8 6 13 17 11 23
-23 65 -6 101 32 66 12 -12 45 -32 73 -45z m2560 -34 c6 -11 8 -24 6 -29 -3
-5 0 -26 8 -47 8 -25 10 -47 5 -62 -5 -14 -5 -29 2 -40 8 -13 6 -28 -9 -62
-17 -39 -26 -47 -68 -62 -27 -9 -73 -20 -101 -24 l-53 -7 0 32 c0 27 7 36 45
59 58 35 60 56 5 47 -27 -5 -40 -3 -40 5 0 16 49 56 93 76 53 25 46 35 -22 28
-60 -7 -76 1 -65 29 5 13 143 75 171 76 7 1 17 -8 23 -19z m-604 -111 c29 -33
55 -39 94 -22 19 9 71 16 116 18 44 1 90 8 103 14 37 20 55 7 48 -35 -4 -20
-14 -45 -24 -56 -23 -26 -126 -78 -153 -78 -35 0 -20 -31 21 -46 34 -11 40
-10 72 13 39 28 57 24 57 -12 0 -72 -66 -118 -177 -124 -6 -1 -14 -9 -17 -19
-4 -11 -17 -25 -31 -32 -21 -11 -27 -11 -44 4 -11 10 -19 30 -19 49 0 28 -24
90 -53 137 -15 25 -31 64 -35 89 -7 33 -7 31 -5 79 1 48 17 55 47 21z m-1444
-46 c3 -79 -5 -120 -37 -183 -19 -36 -39 -83 -45 -105 l-12 -41 -76 3 c-134 6
-194 35 -205 98 -10 54 6 63 51 31 l40 -27 38 18 c47 23 54 40 17 49 -123 28
-183 71 -183 131 0 38 21 53 46 32 10 -8 49 -13 112 -14 54 -1 111 -6 128 -12
28 -10 34 -8 68 23 20 19 41 34 47 34 5 0 10 -17 11 -37z m3468 -127 c29 -53
68 -150 75 -191 2 -11 9 -36 15 -55 22 -66 20 -390 -4 -495 -21 -94 -30 -123
-55 -187 -46 -116 -73 -168 -124 -244 -26 -40 -47 -75 -47 -79 0 -4 -20 -32
-45 -61 -25 -28 -45 -56 -45 -61 0 -5 -13 -24 -29 -43 -42 -51 -112 -83 -185
-84 -56 -1 -61 1 -58 19 2 11 25 54 52 95 48 75 57 91 126 217 20 37 40 73 44
78 4 6 24 48 44 95 20 47 41 93 46 102 18 33 50 123 50 141 0 47 -35 -8 -86
-133 -41 -103 -260 -452 -295 -470 -10 -6 -20 -10 -23 -10 -4 0 -3 57 0 126 6
110 9 129 28 149 12 13 41 61 65 107 24 46 49 94 56 108 29 53 75 157 75 169
0 7 13 41 29 75 15 33 34 77 41 96 7 19 17 40 22 46 4 6 17 39 28 72 11 34 25
74 31 89 7 16 13 37 14 48 2 11 10 40 18 65 22 67 51 164 52 175 10 110 38
123 85 41z m-5476 -62 c7 -33 33 -114 114 -346 17 -48 61 -151 100 -230 38
-79 84 -177 102 -218 19 -41 43 -88 55 -105 12 -16 36 -57 54 -90 19 -33 47
-77 63 -98 28 -35 30 -44 33 -130 1 -51 5 -109 10 -129 4 -22 3 -38 -2 -38
-15 0 -79 72 -118 135 -21 33 -41 62 -45 65 -9 6 -80 110 -80 117 0 3 -15 26
-34 52 -18 25 -57 94 -86 153 -49 100 -70 124 -70 79 0 -24 159 -339 210 -416
22 -33 48 -76 59 -95 11 -19 49 -75 85 -125 70 -97 71 -111 11 -116 -79 -5
-206 49 -231 99 -6 12 -26 39 -45 60 -38 41 -137 177 -183 250 -75 121 -146
316 -161 442 -14 126 -14 365 0 430 35 163 111 316 146 294 4 -2 10 -20 13
-40z m4070 -9 c10 -28 -7 -51 -36 -46 -4 0 -20 -4 -35 -10 -21 -8 -24 -12 -13
-19 8 -5 26 -6 41 -3 37 7 48 -15 20 -38 -15 -12 -35 -17 -59 -15 -20 2 -49 4
-64 5 -35 1 -113 68 -99 85 6 6 23 13 40 14 17 1 43 7 58 13 15 6 44 13 63 16
19 3 37 7 39 9 10 10 39 3 45 -11z m-2629 -31 c17 -3 50 -8 75 -11 36 -4 50
-11 67 -36 12 -17 20 -34 17 -38 -4 -7 -81 -4 -120 6 -31 7 -39 -21 -11 -39
12 -8 54 -17 94 -20 77 -5 115 -19 107 -39 -8 -21 -84 -58 -126 -62 -22 -2
-42 -6 -45 -9 -10 -10 9 -26 30 -26 36 0 51 -14 32 -30 -17 -14 -20 -51 -5
-66 27 -27 -64 -52 -99 -28 -27 19 -51 93 -39 124 5 14 5 26 1 27 -25 9 -35
25 -42 71 -6 38 -4 57 5 69 10 14 9 23 -2 45 -8 15 -14 39 -14 53 0 21 4 25
23 20 12 -3 36 -7 52 -11z m2376 -98 c54 -50 142 -74 207 -57 49 14 70 6 78
-26 13 -50 -50 -139 -125 -178 -49 -25 -181 -17 -245 16 -78 39 -125 126 -104
192 12 35 29 34 57 -4 25 -33 124 -85 142 -74 12 8 -17 45 -35 45 -29 1 -92
82 -80 102 11 18 79 8 105 -16z m-1911 -55 c10 -19 -14 -71 -34 -71 -7 0 -21
-9 -31 -20 -17 -18 -17 -20 0 -26 9 -4 32 -2 51 4 45 13 52 -1 18 -33 -57 -53
-157 -83 -239 -71 -57 9 -59 30 -11 89 18 23 39 52 45 65 7 12 31 36 54 53 34
25 50 29 90 28 31 -2 51 -8 57 -18z m846 -51 c34 -22 38 -29 49 -95 4 -22 16
-55 27 -73 12 -19 18 -42 15 -55 -3 -12 -8 -32 -11 -44 -5 -22 15 -53 34 -53
4 0 19 19 33 42 20 34 23 47 15 68 -21 52 -21 88 1 99 17 10 22 7 36 -23 20
-42 40 -60 84 -75 74 -24 154 -8 200 43 29 31 52 33 76 6 18 -19 57 -22 82 -7
26 16 33 -14 35 -150 1 -137 0 -143 -27 -198 -16 -31 -36 -62 -45 -68 -36 -27
-52 -65 -70 -166 -7 -43 -37 -81 -64 -81 -6 0 -26 35 -45 78 -42 95 -48 102
-66 78 -22 -29 -12 -99 20 -145 23 -35 27 -49 26 -113 -1 -130 -87 -308 -149
-308 -28 0 -118 -59 -160 -103 -34 -38 -130 -87 -172 -90 -14 -1 -61 4 -104
12 -70 13 -84 19 -118 53 -27 27 -38 47 -38 68 0 32 -5 36 -54 44 -16 3 -38
14 -50 24 -12 10 -35 24 -53 31 -42 17 -52 50 -57 176 -3 105 5 134 56 207 27
38 26 108 0 108 -4 0 -29 -18 -56 -40 -26 -22 -57 -40 -67 -40 -34 0 -56 33
-58 88 0 27 -8 63 -16 79 -8 15 -15 34 -15 41 0 6 -4 12 -9 12 -5 0 -21 25
-36 56 -28 59 -28 58 -9 214 11 89 51 140 107 140 40 0 106 39 113 66 9 34 36
39 56 12 46 -60 68 -66 104 -27 19 22 35 24 51 8 15 -15 -1 -50 -29 -68 -44
-27 -83 -23 -160 17 -5 2 -8 -6 -8 -18 0 -24 51 -50 97 -50 55 0 117 26 131
53 12 25 41 38 43 20 2 -19 8 -46 14 -61 6 -15 9 -14 26 7 10 13 19 37 19 55
0 41 42 129 71 150 32 22 85 20 125 -4z m855 -86 c41 -76 57 -88 170 -123 76
-24 93 -25 154 -9 82 22 87 -25 11 -104 -61 -64 -91 -77 -180 -79 -65 -1 -84
3 -138 29 -106 51 -144 102 -150 197 -2 50 0 60 14 63 12 2 24 -10 39 -42 25
-54 60 -91 112 -117 60 -31 63 -11 5 30 -50 34 -65 55 -101 140 -16 37 -5 95
17 88 6 -2 27 -35 47 -73z m584 -36 c3 -18 10 -59 16 -91 16 -94 14 -315 -4
-378 -9 -30 -18 -66 -21 -82 -10 -56 -67 -200 -132 -332 -58 -119 -70 -135
-103 -135 -38 0 -64 25 -55 54 4 11 17 45 30 75 13 29 24 59 24 65 0 7 11 41
25 77 14 35 27 73 29 84 5 23 51 150 66 180 13 26 30 117 24 127 -9 14 -24 8
-24 -9 0 -10 -21 -67 -46 -128 -25 -60 -51 -130 -58 -155 -7 -25 -21 -61 -31
-80 -10 -19 -19 -44 -20 -55 -4 -33 -5 -35 -15 -35 -5 0 -9 10 -9 23 2 44 -13
84 -71 185 -23 41 -23 42 -4 57 10 8 31 17 47 20 38 9 82 49 113 102 23 38 26
51 19 91 -11 70 -8 83 21 110 36 34 54 80 43 110 -16 42 -10 60 41 113 28 29
50 60 50 69 0 55 33 10 45 -62z m-2836 -8 c9 -44 19 -65 38 -80 25 -20 26 -23
16 -63 -14 -52 1 -94 47 -127 l31 -22 -6 -72 -7 -71 41 -51 c50 -63 96 -99
139 -108 37 -9 39 -16 13 -40 -12 -11 -26 -49 -36 -94 -23 -100 -23 -104 -24
-125 -1 -25 -17 -13 -26 20 -3 15 -17 50 -29 78 -13 27 -33 75 -45 105 -13 30
-36 82 -52 116 -16 33 -31 69 -33 80 -10 51 -28 104 -36 109 -16 10 -22 -19
-10 -50 6 -15 13 -44 16 -64 3 -20 15 -57 25 -83 10 -27 28 -72 40 -100 11
-29 27 -66 34 -83 8 -16 26 -63 40 -103 15 -40 39 -100 55 -134 22 -46 27 -66
19 -80 -5 -10 -15 -19 -22 -19 -55 -6 -61 -3 -92 41 -52 75 -180 335 -188 385
-3 17 -15 59 -28 95 -19 57 -22 85 -22 235 0 214 6 268 38 341 24 53 28 57 39
41 8 -9 19 -44 25 -77z m1865 64 c7 -19 -27 -88 -54 -107 -41 -28 -114 -7
-142 41 -29 50 -4 66 54 34 30 -16 40 -18 75 -14 6 1 15 12 19 25 11 36 38 48
48 21z m-1324 -129 c0 -7 -26 -36 -57 -64 -31 -28 -54 -53 -51 -57 9 -8 61 21
99 56 40 36 54 27 44 -28 -9 -54 -72 -117 -134 -135 -70 -21 -155 -21 -197 -1
-43 21 -134 112 -134 135 0 30 22 38 78 26 41 -9 60 -8 85 2 18 7 48 15 67 17
43 6 115 32 154 56 31 18 46 16 46 -7z m3956 -5 c10 -21 23 -168 25 -290 1
-48 -9 -199 -16 -230 -3 -14 -7 -45 -10 -70 -2 -25 -7 -56 -10 -70 -3 -14 -7
-36 -10 -50 -5 -34 -21 -99 -34 -135 -5 -16 -20 -59 -32 -95 -23 -71 -93 -205
-113 -217 -7 -5 -22 -24 -33 -43 -12 -19 -45 -53 -72 -75 -28 -22 -51 -43 -51
-48 0 -16 -121 -125 -158 -143 -39 -18 -142 -32 -142 -19 0 13 61 105 69 105
4 0 22 21 39 48 17 26 61 80 97 120 36 40 65 77 65 81 0 5 16 32 35 60 19 28
35 52 35 54 0 2 17 40 37 83 21 43 38 84 38 89 1 6 6 19 12 30 6 11 14 37 18
58 10 49 -10 49 -25 0 -13 -41 -30 -70 -128 -218 -34 -53 -69 -110 -79 -128
-20 -39 -69 -100 -148 -182 -33 -35 -84 -91 -114 -124 -63 -73 -90 -88 -165
-96 -71 -8 -73 4 -13 86 23 32 57 82 75 111 18 29 46 68 62 87 17 18 30 37 30
42 0 11 58 97 71 105 11 6 86 117 128 188 13 23 42 64 63 93 21 29 38 54 38
56 0 6 65 114 78 130 5 7 19 28 30 47 11 19 35 63 55 97 19 34 41 79 48 100 8
21 26 63 42 93 15 30 41 94 57 141 54 160 78 189 106 129z m-6252 -102 c8 -13
33 -69 56 -126 23 -57 54 -125 69 -150 15 -26 40 -74 55 -107 28 -61 150 -249
253 -388 32 -43 68 -93 80 -110 12 -18 31 -43 42 -57 11 -14 34 -43 50 -65 17
-22 44 -56 61 -75 17 -19 44 -53 60 -75 16 -22 54 -71 85 -110 80 -101 165
-217 165 -227 0 -15 -96 -14 -144 2 -38 12 -341 307 -381 370 -16 25 -47 70
-70 100 -65 85 -152 216 -159 238 -8 23 -36 50 -36 34 0 -40 98 -240 172 -352
31 -47 92 -120 135 -163 87 -87 185 -200 194 -225 5 -14 -1 -18 -30 -20 -81
-6 -171 37 -262 128 -25 25 -70 65 -100 90 -29 25 -57 50 -62 57 -4 6 -28 36
-53 65 -25 29 -59 82 -76 118 -16 36 -36 77 -44 92 -8 14 -14 32 -14 40 0 7
-7 26 -16 43 -8 16 -22 61 -30 100 -9 38 -18 79 -20 90 -16 69 -36 180 -42
240 -10 100 -4 405 9 438 14 33 34 35 53 5z m3976 -98 c50 -44 126 -63 245
-59 l100 4 -2 -38 c-3 -54 -45 -103 -112 -133 -31 -14 -64 -29 -73 -35 -26
-13 -56 -11 -108 8 -64 24 -95 47 -114 87 -33 71 -6 104 44 51 27 -29 124 -55
141 -38 8 8 -5 16 -44 27 -62 18 -131 77 -139 119 -9 47 14 50 62 7z m923 19
c54 -24 82 -227 57 -410 -12 -84 -43 -176 -77 -226 -10 -16 -27 -53 -38 -83
-10 -30 -26 -68 -36 -85 -9 -16 -20 -41 -24 -55 -4 -14 -21 -44 -37 -67 -15
-23 -37 -61 -47 -85 -27 -61 -62 -101 -82 -93 -10 4 -20 24 -24 48 -12 73 -7
116 18 150 25 34 87 187 87 215 0 10 6 29 14 44 8 15 17 42 21 60 4 18 14 45
21 60 16 31 28 118 17 118 -4 0 -16 -21 -27 -48 -10 -26 -33 -83 -51 -127 -18
-44 -36 -96 -40 -115 -4 -19 -18 -59 -31 -88 -13 -29 -24 -56 -24 -61 0 -4
-15 -28 -34 -52 -26 -35 -44 -47 -81 -57 -63 -17 -65 -14 -70 97 0 18 5 45 13
60 67 128 92 180 96 203 2 15 11 40 19 55 27 50 96 220 128 316 35 102 117
202 189 230 8 3 16 6 17 6 1 1 13 -4 26 -10z m-2586 -88 c2 -34 -2 -43 -27
-61 -17 -12 -42 -24 -57 -26 -32 -6 -55 -23 -48 -34 8 -13 101 15 131 39 33
26 53 14 49 -30 -4 -41 -35 -72 -104 -103 -60 -27 -70 -27 -137 -3 -92 33
-120 54 -150 110 -38 74 -28 88 61 80 80 -7 186 12 228 42 45 32 52 31 54 -14z
m-882 4 c72 -30 138 -116 190 -250 19 -47 59 -138 91 -202 31 -65 63 -135 70
-156 8 -21 23 -52 35 -68 54 -76 72 -123 72 -187 -1 -35 -5 -68 -10 -73 -16
-16 -95 2 -118 26 -55 58 -98 139 -128 240 -8 28 -30 82 -49 120 -19 39 -44
90 -56 115 l-21 45 0 -40 c0 -22 8 -60 19 -84 11 -24 20 -47 20 -52 0 -5 11
-33 25 -63 14 -30 25 -59 25 -63 0 -18 70 -174 96 -212 16 -25 27 -54 26 -73
-1 -47 -23 -128 -34 -128 -14 0 -59 56 -92 114 -15 28 -38 64 -49 80 -27 38
-83 147 -109 211 -11 28 -30 64 -42 80 -22 29 -54 106 -75 175 -5 19 -13 96
-16 170 -6 120 -4 143 15 202 26 85 50 100 115 73z m2427 -158 c7 -8 33 -26
58 -42 67 -42 91 -68 100 -110 27 -120 -41 -221 -157 -231 -59 -5 -121 23
-147 66 -24 42 -16 64 19 48 14 -6 25 -15 25 -19 0 -4 14 -12 30 -18 17 -5 30
-8 30 -6 0 2 -14 20 -31 40 -34 39 -48 100 -30 134 17 31 61 27 120 -13 30
-21 53 -30 57 -24 7 11 -15 58 -26 58 -4 0 -28 19 -55 43 -43 39 -46 46 -36
65 14 25 24 27 43 9z m-1457 -88 c6 -25 2 -36 -19 -58 -25 -26 -35 -61 -18
-61 4 0 18 7 31 17 23 16 25 15 52 -18 16 -19 29 -37 29 -41 0 -4 -16 -25 -36
-45 -20 -21 -43 -60 -52 -88 -14 -41 -22 -51 -43 -53 -17 -2 -37 6 -55 22 -28
23 -29 28 -30 116 -2 135 9 162 86 214 46 32 47 31 55 -5z m1750 -35 c9 -4 25
-25 36 -47 23 -43 49 -155 41 -174 -6 -18 -33 -16 -61 3 -12 9 -37 17 -55 19
-48 3 -58 12 -53 52 5 38 17 55 24 36 3 -7 14 -13 25 -13 15 0 18 4 13 23 -4
12 -16 31 -26 43 -19 21 -24 45 -12 57 8 9 46 9 68 1z m1098 -6 c22 -16 27
-43 29 -138 1 -76 -21 -168 -56 -235 -9 -16 -16 -36 -16 -43 0 -19 -62 -122
-112 -188 -24 -30 -52 -68 -63 -83 -42 -57 -254 -251 -273 -251 -6 0 -14 5
-17 10 -7 12 54 139 90 186 13 17 37 55 53 85 16 30 39 72 51 93 53 93 103
198 97 203 -10 10 -21 -6 -58 -77 -19 -36 -44 -77 -56 -91 -12 -14 -45 -65
-73 -114 -28 -50 -62 -100 -77 -112 -27 -23 -66 -30 -76 -14 -11 16 22 100 53
138 17 21 31 41 31 46 0 5 13 28 29 51 17 24 41 67 55 97 14 30 37 74 52 99
34 56 87 152 115 206 22 46 95 119 131 134 33 13 72 12 91 -2z m-3067 -56 c-8
-16 -22 -34 -30 -41 -19 -16 -21 -51 -3 -51 6 0 24 14 39 32 14 18 29 31 31
28 3 -3 0 -29 -6 -59 -11 -50 -17 -58 -74 -104 -35 -27 -63 -54 -63 -60 0 -5
-3 -7 -7 -3 -14 13 -11 91 5 141 20 65 66 132 95 138 12 2 23 5 25 6 1 0 -4
-12 -12 -27z m4405 -83 c32 -106 23 -261 -25 -429 -38 -131 -59 -188 -87 -230
-9 -14 -36 -56 -60 -95 -24 -38 -46 -72 -49 -75 -3 -3 -23 -30 -45 -60 -88
-122 -160 -189 -327 -306 -114 -79 -175 -105 -280 -119 -14 -2 -35 -8 -45 -13
-27 -15 -223 -14 -223 1 0 12 54 41 205 112 130 61 206 119 354 266 115 114
221 250 221 284 0 14 -21 2 -32 -19 -7 -13 -56 -63 -108 -111 -52 -48 -123
-115 -158 -147 -80 -76 -163 -133 -280 -192 -50 -25 -94 -46 -97 -46 -16 0 0
32 34 66 21 22 47 58 58 79 11 22 27 54 36 70 8 17 20 42 25 56 6 16 40 46 82
75 40 26 74 54 77 60 2 7 23 25 46 40 42 28 231 216 300 298 20 25 61 80 90
123 29 43 68 101 87 128 63 93 70 105 96 152 60 109 63 115 75 108 5 -3 18
-38 30 -76z m-5450 22 c58 -38 87 -70 143 -166 26 -44 65 -107 86 -140 21 -33
46 -73 56 -90 34 -61 138 -215 145 -215 9 0 35 -57 44 -97 5 -26 3 -32 -14
-38 -37 -12 -80 26 -148 130 -36 55 -81 117 -99 138 -19 20 -34 42 -34 48 0
15 -52 87 -67 93 -28 11 117 -237 217 -374 60 -81 109 -171 103 -187 -8 -22
-35 -14 -62 16 -14 15 -42 36 -61 46 -19 10 -39 24 -45 31 -5 6 -35 34 -66 61
-52 45 -96 92 -178 192 -18 22 -49 71 -68 108 -19 38 -39 73 -43 78 -13 16
-50 127 -57 170 -7 40 -7 52 -4 138 2 88 67 113 152 58z m1393 -161 c6 -70 5
-77 -17 -100 -36 -38 -76 -70 -86 -70 -16 0 -19 24 -6 50 6 14 17 52 25 85 14
67 33 111 52 118 21 7 25 -4 32 -83z m-2819 -17 c57 -90 114 -170 165 -229 19
-23 46 -59 60 -80 30 -46 194 -213 305 -310 80 -69 154 -124 243 -177 71 -43
99 -74 100 -108 0 -17 9 -43 19 -57 9 -15 26 -44 36 -64 10 -20 30 -48 44 -62
14 -14 21 -26 16 -26 -26 0 -144 47 -188 75 -27 17 -64 40 -81 51 -58 35 -267
206 -359 293 -25 24 -49 41 -51 38 -14 -14 174 -227 271 -308 154 -126 311
-217 391 -224 52 -4 59 -8 51 -30 -5 -11 -20 -15 -55 -15 -34 0 -64 -8 -98
-26 -39 -21 -58 -25 -94 -21 -47 6 -174 66 -233 111 -18 14 -38 26 -42 26 -5
0 -33 17 -64 38 -54 36 -132 109 -237 222 -28 30 -72 74 -98 98 -53 50 -120
180 -136 263 -5 28 -18 70 -29 94 -55 125 -63 369 -15 483 7 18 17 31 22 29 4
-3 30 -41 57 -84z m4007 20 c37 -7 73 -48 97 -113 21 -54 28 -144 14 -153 -16
-9 -53 13 -67 41 -10 19 -30 35 -61 46 -61 24 -105 62 -105 91 0 35 21 36 57
2 55 -52 55 -12 1 56 -19 24 -20 29 -8 37 8 6 22 7 30 3 8 -3 27 -8 42 -10z
m445 -11 c18 -11 22 -90 7 -140 -8 -25 -25 -64 -39 -88 -29 -49 -31 -67 -10
-84 18 -15 50 15 91 88 47 84 106 100 148 40 22 -32 20 -77 -8 -139 -26 -59
-43 -139 -29 -139 15 0 33 16 58 51 34 45 101 82 126 68 36 -19 44 -107 18
-186 -40 -121 -28 -147 36 -76 27 30 52 47 77 52 55 13 72 -4 71 -70 -1 -58
-22 -111 -74 -191 -30 -46 -34 -83 -7 -72 7 3 26 25 42 51 27 43 31 45 65 39
45 -7 62 -30 60 -81 -3 -51 -20 -95 -62 -154 -53 -76 -73 -119 -60 -132 8 -8
20 -3 44 20 115 111 156 -43 52 -198 -13 -19 -23 -40 -23 -47 0 -8 -13 -26
-30 -41 -37 -33 -38 -51 -2 -58 46 -10 94 -38 102 -61 9 -23 0 -76 -18 -111
-13 -24 -103 -81 -174 -109 -57 -23 -61 -40 -14 -59 39 -16 66 -49 66 -80 0
-56 -72 -118 -155 -134 -61 -11 -69 -25 -43 -74 22 -44 19 -73 -14 -117 -18
-25 -31 -32 -83 -46 -19 -5 -60 -13 -72 -13 -6 -1 -16 -14 -21 -30 -12 -33 0
-63 48 -118 37 -42 38 -75 4 -125 -20 -28 -39 -41 -78 -53 -75 -25 -95 -51
-91 -122 2 -42 -3 -68 -17 -94 -26 -46 -51 -61 -114 -65 -50 -3 -122 -30 -155
-56 -17 -14 -50 -80 -66 -133 -5 -16 -21 -36 -35 -44 -23 -13 -31 -12 -89 13
-35 15 -74 37 -87 49 -29 27 -84 27 -142 0 -25 -12 -55 -24 -68 -28 -14 -4
-36 -32 -62 -79 -59 -108 -65 -111 -175 -111 -90 0 -94 -1 -121 -30 -15 -16
-47 -67 -70 -112 -38 -73 -42 -89 -37 -131 3 -26 5 -57 4 -70 -4 -94 -168
-226 -295 -239 -69 -7 -130 -37 -168 -84 -42 -52 -68 -52 -68 -1 0 24 7 45 18
55 19 17 158 89 239 123 29 12 68 35 86 51 18 16 48 35 65 42 32 13 51 49 37
70 -11 19 -44 12 -60 -13 -19 -29 -118 -106 -137 -106 -7 0 -22 -7 -32 -15
-11 -8 -28 -15 -38 -15 -10 0 -37 -9 -61 -19 -23 -11 -64 -22 -92 -26 -27 -4
-63 -17 -80 -28 -37 -27 -74 -68 -75 -83 -1 -39 -71 -83 -82 -51 -20 55 69
149 199 210 27 12 63 32 81 45 17 13 32 21 32 18 0 -3 23 2 52 11 52 15 143
67 184 105 12 10 34 21 50 24 32 6 64 31 64 50 0 16 -39 44 -62 44 -10 0 -51
-29 -92 -65 -41 -36 -91 -72 -110 -80 -19 -8 -37 -19 -41 -25 -3 -5 -19 -10
-36 -10 -44 0 -161 -44 -209 -79 -33 -24 -50 -30 -74 -25 -31 5 -46 19 -46 42
0 29 -17 7 -49 -66 -19 -42 -40 -91 -48 -108 -22 -49 -63 -79 -130 -97 -82
-22 -115 -21 -147 4 -31 24 -33 47 -7 81 19 23 25 41 22 65 -2 18 -92 73 -122
73 -34 0 -104 -67 -88 -86 7 -9 19 -10 47 -2 32 9 38 7 53 -11 21 -25 18 -99
-5 -156 -9 -20 -16 -50 -16 -65 0 -47 -66 -56 -99 -14 -17 21 -21 41 -21 95 0
88 -5 99 -44 99 -37 0 -49 7 -65 37 -16 32 -14 51 13 86 13 18 31 48 40 67 19
42 113 118 161 131 19 5 72 11 117 12 86 3 121 15 138 46 7 14 6 22 -4 30 -7
6 -15 8 -18 5 -3 -3 -55 -6 -114 -8 -97 -2 -116 -6 -174 -33 -54 -25 -78 -46
-145 -123 -44 -51 -90 -96 -103 -101 -27 -10 -54 1 -76 32 -12 18 -12 27 -1
60 18 49 9 102 -22 135 -23 25 -28 26 -94 21 -79 -6 -102 -20 -119 -73 -21
-62 10 -73 53 -19 30 38 65 46 91 20 21 -21 12 -85 -20 -151 -18 -37 -24 -62
-20 -80 9 -36 -11 -96 -32 -92 -24 5 -60 86 -67 153 -9 86 -12 92 -49 99 -27
5 -37 15 -56 56 -22 46 -22 50 -6 74 9 14 16 30 16 36 0 16 42 70 54 70 6 0
31 19 56 41 74 67 90 72 230 74 137 2 204 21 251 71 40 43 -15 65 -81 33 -61
-29 -122 -41 -225 -43 -86 -2 -108 -7 -155 -30 -56 -27 -109 -62 -145 -96 -29
-27 -58 -10 -45 26 31 80 -4 141 -84 146 -43 3 -51 0 -69 -24 -25 -34 -18 -44
22 -30 25 9 34 7 52 -7 29 -23 19 -65 -27 -123 -22 -28 -34 -54 -34 -74 0 -36
-31 -81 -48 -70 -19 12 -32 79 -26 136 4 30 6 69 6 85 0 17 -1 49 -1 71 -1 62
18 96 79 146 120 98 204 121 446 122 120 1 176 -3 186 -11 8 -7 32 -15 54 -19
21 -3 57 -10 79 -16 22 -6 78 -10 124 -10 51 1 93 -4 110 -12 32 -16 91 -19
108 -4 21 17 15 37 -14 44 -25 7 -24 8 25 30 29 13 69 26 90 29 21 3 48 8 60
10 12 3 31 7 43 10 34 7 228 7 314 -1 45 -3 96 -15 117 -25 46 -23 171 -26
238 -5 87 27 159 65 177 93 30 47 106 124 143 143 19 11 58 41 85 67 28 26 64
57 82 68 18 11 59 39 92 63 34 23 64 42 67 42 3 0 43 21 88 47 44 25 103 58
129 73 69 39 127 98 191 195 31 47 56 88 56 91 0 11 77 110 105 136 13 13 46
63 72 112 27 49 58 94 68 100 11 6 22 13 25 16 3 3 22 18 43 33 63 47 44 79
-32 52 -24 -8 -49 -15 -56 -15 -10 0 -32 73 -40 134 -9 73 -65 222 -108 286
-36 53 -106 121 -162 157 -100 64 -120 122 -120 343 l0 165 33 60 c51 94 100
155 136 170 27 12 36 22 45 59 8 34 27 62 82 118 39 40 79 81 88 92 27 31 81
45 108 28z m-1913 -17 c34 -22 76 -90 76 -120 0 -15 4 -34 10 -44 7 -14 2 -30
-21 -65 -16 -26 -35 -68 -41 -94 -22 -86 -67 -134 -189 -198 -43 -23 -90 -51
-105 -63 -14 -11 -30 -21 -34 -21 -4 0 -23 22 -41 50 -34 49 -59 64 -59 35 0
-21 40 -97 57 -110 12 -9 10 -19 -12 -61 -14 -27 -27 -71 -29 -97 -1 -26 -5
-49 -8 -53 -12 -11 -64 25 -106 75 -24 28 -48 49 -53 45 -15 -9 -11 -20 27
-69 19 -26 34 -49 32 -51 -2 -2 -24 -4 -48 -6 -42 -3 -44 -2 -73 44 -31 49
-44 135 -26 170 22 43 94 25 151 -38 56 -60 76 -27 37 63 -39 91 -31 223 14
223 24 0 92 -43 129 -81 21 -22 43 -39 49 -39 17 0 2 64 -32 142 -16 36 -29
76 -29 88 0 32 32 80 57 86 46 12 71 -4 118 -76 48 -75 66 -90 90 -70 22 18
19 32 -20 90 -33 50 -48 99 -47 158 0 45 1 48 27 76 27 30 64 34 99 11z m1700
-11 c14 -6 14 -9 0 -33 -9 -15 -25 -33 -35 -39 -15 -10 -20 -7 -33 20 -22 43
-21 46 17 51 17 2 33 5 34 5 1 1 8 -1 17 -4z m-1358 -162 c4 -19 7 -56 8 -83
1 -62 12 -71 31 -25 18 43 37 53 71 38 39 -18 33 -74 -16 -150 -45 -68 -78
-95 -111 -90 -52 8 -88 287 -46 352 18 26 19 27 38 10 10 -9 22 -33 25 -52z
m1025 26 c51 -54 67 -142 44 -248 -8 -38 -46 -110 -57 -110 -4 0 -17 19 -29
42 -12 23 -30 54 -40 68 -22 31 -31 109 -15 139 12 22 13 21 31 -13 22 -40 27
-43 44 -22 13 16 5 39 -30 85 -23 29 -24 45 -3 65 21 21 29 20 55 -6z m1858
-58 c12 -6 21 -19 21 -30 0 -20 -75 -155 -145 -260 -45 -68 -235 -253 -289
-282 -17 -9 -50 -37 -72 -61 -23 -25 -63 -59 -89 -77 -39 -27 -49 -30 -60 -19
-25 28 1 72 89 148 89 76 229 219 246 251 17 31 -7 34 -32 4 -13 -15 -31 -34
-42 -43 -10 -9 -29 -25 -41 -36 -93 -82 -190 -161 -204 -167 -23 -8 -37 1 -50
34 -13 36 19 99 73 140 45 34 86 76 156 158 87 102 169 170 260 217 78 41 133
48 179 23z m-3023 -22 c4 -6 -6 -22 -24 -37 -26 -22 -82 -119 -82 -143 0 -24
31 -2 59 43 17 28 37 49 44 46 16 -5 24 -53 17 -97 -4 -19 -3 -47 1 -62 5 -21
1 -35 -19 -62 -28 -36 -49 -48 -114 -64 -30 -8 -45 -6 -87 14 -66 30 -69 62
-9 93 28 14 38 34 57 116 13 54 36 95 76 138 27 28 68 36 81 15z m-1454 -127
c102 -47 167 -98 283 -219 49 -52 109 -105 133 -119 71 -42 125 -142 69 -128
-45 12 -62 12 -86 3 -18 -6 -29 -4 -45 10 -12 10 -41 31 -66 47 -25 16 -71 54
-102 84 -55 53 -81 63 -60 24 10 -17 33 -41 155 -158 22 -20 37 -37 35 -38 -1
-2 -18 -8 -37 -14 -37 -13 -55 -8 -94 30 -12 12 -41 38 -64 58 -24 20 -61 60
-83 90 -22 30 -59 74 -81 99 -87 97 -149 191 -149 224 0 43 5 46 61 46 34 0
71 -11 131 -39z m2455 -44 c27 -54 40 -86 48 -117 4 -14 19 -50 34 -80 26 -56
38 -156 21 -190 -4 -8 -10 -36 -13 -63 -3 -26 -9 -52 -13 -59 -4 -6 -8 -41 -8
-77 -1 -55 -4 -66 -19 -69 -29 -6 -64 24 -88 75 -27 60 -34 200 -12 253 18 44
22 73 29 191 5 77 3 102 -10 127 -9 17 -16 38 -16 46 0 27 25 7 47 -37z m-633
17 c22 -9 20 -47 -6 -91 -12 -21 -42 -76 -66 -123 -25 -47 -51 -92 -58 -101
-15 -17 -19 -49 -6 -49 13 0 36 29 67 85 16 28 51 80 78 117 73 99 112 102
112 9 0 -46 -30 -131 -46 -131 -4 0 -18 -17 -30 -37 -12 -21 -37 -50 -55 -66
-18 -15 -51 -65 -74 -111 -45 -90 -77 -118 -125 -108 -50 9 -73 131 -39 209
81 185 115 257 150 316 49 82 64 94 98 81z m539 -43 c10 -17 18 -53 19 -87 2
-72 -19 -219 -36 -254 -7 -14 -30 -61 -52 -104 -43 -87 -69 -107 -103 -78 -14
13 -21 35 -25 87 -4 39 -8 81 -10 95 -1 14 -22 63 -45 109 -68 134 -63 201 19
230 43 14 73 -15 64 -62 -13 -68 -8 -101 20 -134 20 -23 27 -26 37 -15 11 10
10 18 -5 43 -30 50 -8 158 39 191 24 18 61 8 78 -21z m3331 -101 c-1 -3 -5
-45 -9 -95 -11 -154 -66 -287 -210 -510 -18 -27 -51 -82 -72 -121 -43 -76 -72
-114 -117 -154 -126 -110 -141 -120 -261 -168 -27 -12 -81 -34 -120 -51 -68
-29 -102 -39 -155 -47 -140 -22 -348 35 -327 89 3 8 27 20 54 27 320 84 568
197 679 310 16 16 35 30 42 30 6 0 12 3 12 8 0 4 18 20 38 35 40 29 81 87 63
87 -6 0 -28 -15 -48 -33 -92 -81 -286 -205 -428 -273 -85 -41 -256 -86 -271
-72 -3 4 4 16 16 28 25 25 39 58 54 130 l12 55 89 26 c100 29 274 106 344 152
25 17 75 55 111 86 75 64 376 366 428 429 24 30 42 42 56 40 12 -2 20 -5 20
-8z m-4114 -51 c8 -14 3 -29 -20 -65 -16 -27 -30 -55 -30 -64 0 -9 -14 -35
-31 -59 -29 -39 -31 -46 -25 -99 3 -31 8 -68 11 -82 9 -42 -7 -53 -83 -57 -66
-4 -71 -3 -91 23 -28 36 -27 48 12 78 54 43 67 59 67 78 0 24 -7 23 -39 -9
-15 -16 -46 -45 -69 -67 -25 -23 -42 -48 -42 -61 0 -29 -33 -39 -54 -16 -9 10
-16 26 -16 37 0 23 51 75 98 98 31 16 44 46 20 46 -22 0 -105 -54 -127 -81
-11 -14 -27 -45 -37 -68 -9 -23 -22 -40 -28 -38 -21 7 -12 92 13 129 27 38 82
78 109 78 9 0 34 9 55 20 20 11 43 20 51 20 8 0 47 33 88 72 122 121 144 132
168 87z m-431 -12 c-2 -2 -26 -21 -52 -42 -67 -53 -48 -67 38 -26 79 37 110
39 126 10 18 -35 -3 -66 -53 -80 -88 -24 -129 -43 -152 -69 -32 -39 -56 -49
-93 -38 -29 8 -33 13 -33 43 0 44 45 116 90 146 19 12 46 33 60 45 31 27 52
34 64 23 5 -5 8 -10 5 -12z m833 -83 c3 -3 -1 -31 -9 -62 -18 -68 -21 -138 -6
-153 11 -11 48 65 58 121 7 42 12 50 31 50 18 0 34 -40 34 -83 0 -70 -71 -237
-101 -237 -26 0 -48 23 -72 78 -30 66 -30 99 2 200 10 34 17 62 14 62 -3 0 0
7 7 15 13 15 32 20 42 9z m2625 -35 c7 -7 13 -21 13 -32 0 -36 -86 -209 -133
-269 -59 -75 -215 -172 -323 -203 -27 -8 -83 -25 -124 -39 -41 -15 -83 -26
-93 -26 -23 0 -77 28 -77 40 0 21 50 62 120 96 115 57 218 130 292 208 37 39
68 74 68 79 0 20 -34 2 -87 -44 -77 -67 -201 -154 -255 -179 -24 -11 -62 -20
-85 -20 -39 0 -43 2 -43 24 0 30 16 73 33 90 6 7 48 40 92 74 44 34 94 72 110
85 36 28 171 95 205 102 45 9 74 14 125 21 28 3 51 7 53 9 7 7 97 -7 109 -16z
m-5990 -35 c21 -25 72 -73 113 -107 41 -34 91 -77 110 -95 81 -76 98 -90 150
-133 30 -24 59 -49 65 -55 11 -12 96 -67 160 -104 22 -12 74 -35 115 -50 41
-15 92 -35 112 -43 l38 -16 -25 -53 c-14 -29 -25 -62 -25 -73 -1 -50 -13 -48
-141 15 -68 34 -131 67 -139 74 -8 7 -37 26 -64 41 -27 16 -60 39 -74 52 -25
23 -52 31 -52 14 0 -13 72 -76 122 -107 24 -15 60 -40 81 -57 46 -36 227 -128
239 -121 4 3 8 2 9 -3 0 -4 3 -26 5 -48 3 -23 -2 -64 -12 -99 -18 -58 -18 -58
-51 -53 -19 3 -48 13 -65 21 -17 9 -41 16 -52 16 -21 0 -136 54 -146 68 -3 5
-34 24 -70 44 -85 48 -157 117 -205 198 -21 36 -50 79 -64 95 -43 49 -86 115
-125 195 -21 41 -44 86 -51 100 -31 58 -45 136 -42 222 6 126 22 137 84 62z
m4024 -96 c4 -74 12 -116 29 -143 17 -28 18 -33 4 -47 -20 -20 -59 -12 -71 15
-12 28 -9 123 6 160 11 28 30 37 32 15z m-2593 -34 c94 -37 97 -44 19 -44 -41
0 -89 -8 -122 -19 -56 -20 -125 -68 -125 -87 0 -16 -49 -47 -64 -41 -20 8 -95
163 -89 186 8 32 49 40 186 36 109 -3 138 -8 195 -31z m485 -13 c29 -2 59 -39
51 -64 -5 -12 -7 -44 -6 -71 2 -42 -3 -57 -30 -98 -18 -26 -40 -50 -48 -53
-19 -6 -81 -87 -98 -128 -17 -40 -44 -22 -71 50 -22 56 -22 57 -3 83 15 20 28
25 62 25 53 0 77 26 45 49 -21 15 -28 14 -97 -17 -31 -14 -51 -31 -59 -49 -27
-65 -102 -4 -97 79 4 82 41 131 127 172 61 28 82 31 224 22z m1314 -37 c12
-21 22 -42 22 -46 1 -5 -24 -8 -54 -8 -42 0 -55 3 -55 15 0 8 4 15 9 15 5 0
15 16 22 35 16 43 27 41 56 -11z m-971 22 c56 -8 114 -48 124 -87 4 -13 3 -38
-1 -55 -11 -39 -76 -104 -120 -118 -25 -8 -35 -17 -37 -36 -1 -14 -7 -42 -14
-62 -15 -51 -39 -49 -95 6 -35 36 -43 49 -39 71 7 35 35 57 66 50 54 -12 55
-11 55 25 0 34 -1 35 -42 38 -31 2 -47 -2 -61 -16 -40 -40 -64 -34 -77 20 -11
45 50 155 96 170 15 5 81 2 145 -6z m-770 -99 c4 -4 2 -25 -5 -47 -7 -23 -14
-55 -16 -72 -2 -17 -15 -43 -29 -57 -30 -32 -31 -41 -10 -83 9 -18 12 -34 7
-39 -13 -13 -122 36 -119 54 3 25 36 67 51 67 8 0 15 9 15 20 0 44 -62 13
-105 -52 -30 -48 -47 -33 -68 59 -3 15 5 37 24 62 33 46 65 70 105 77 15 3 34
9 42 13 16 9 99 8 108 -2z m2031 -4 c11 -23 9 -41 -6 -78 -7 -16 -19 -45 -27
-63 -15 -36 -18 -72 -6 -72 8 0 58 94 67 127 9 32 62 73 95 73 43 0 55 -29 36
-85 -9 -24 -18 -73 -22 -107 -3 -35 -11 -69 -16 -75 -6 -7 -8 -13 -5 -13 9 0
-43 -133 -59 -151 -8 -8 -14 -19 -14 -23 0 -4 -18 -31 -39 -60 -31 -42 -50
-57 -96 -74 -31 -12 -62 -19 -67 -16 -7 4 -8 30 -4 68 3 33 7 108 9 166 2 58
8 121 14 140 23 71 36 106 64 168 16 34 29 69 29 77 0 21 38 19 47 -2z m-228
-78 c20 -20 37 -75 34 -110 -1 -16 -8 -82 -14 -145 -7 -63 -13 -176 -15 -250
-1 -74 -5 -166 -8 -205 -3 -38 -8 -113 -11 -165 -3 -52 -7 -108 -10 -125 -13
-83 -26 -235 -24 -275 2 -25 1 -72 0 -105 -4 -78 -5 -181 -2 -225 2 -19 -6
-55 -16 -79 -17 -39 -25 -46 -69 -59 -80 -23 -139 -26 -191 -8 -25 9 -67 16
-92 16 -26 0 -62 5 -81 11 -38 12 -248 14 -345 4 -60 -6 -134 -24 -211 -51
-23 -8 -51 -16 -62 -19 -11 -2 -29 -8 -39 -13 -10 -6 -37 -13 -60 -17 -34 -5
-45 -2 -61 15 -33 35 -36 122 -10 275 7 39 13 77 13 85 1 8 4 40 9 70 10 72
14 121 24 260 4 63 11 121 15 127 5 7 10 57 12 110 10 239 17 341 26 383 5 25
11 63 14 85 12 119 20 143 58 160 55 24 59 30 108 129 11 22 34 38 103 67 115
50 191 60 381 50 33 -2 89 -1 125 3 36 3 123 8 194 10 70 3 131 7 134 11 9 9
55 -4 71 -20z m608 -34 c47 -47 101 -167 114 -250 20 -134 4 -233 -64 -397
-72 -174 -76 -254 -17 -354 8 -14 20 -40 26 -57 25 -70 -45 -69 -123 1 -63 57
-85 116 -82 221 2 74 4 79 50 148 52 76 59 97 33 97 -28 0 -99 -82 -134 -155
-43 -87 -39 -82 -50 -65 -13 21 -3 116 19 187 17 56 38 94 100 180 24 34 33
113 13 113 -5 0 -38 -42 -75 -93 -83 -118 -99 -132 -126 -117 -23 12 -28 35
-10 46 6 3 36 59 66 123 59 124 77 200 74 309 -1 34 1 67 4 72 15 24 98 -53
127 -117 27 -61 46 -174 38 -233 -7 -57 -4 -70 20 -70 42 0 59 140 28 235 -23
68 -53 132 -75 157 -16 17 -12 48 6 48 5 0 22 -13 38 -29z m193 -20 c67 -41
69 -45 85 -291 9 -126 17 -149 43 -117 17 19 24 73 23 171 0 49 5 98 10 108
15 28 58 23 69 -8 17 -44 32 -116 35 -167 5 -69 14 -134 24 -160 11 -30 -22
-163 -49 -197 -11 -14 -37 -49 -57 -77 -20 -29 -37 -53 -39 -53 -2 0 -13 18
-24 40 -17 34 -24 60 -29 118 -2 22 -26 12 -37 -15 -5 -16 -11 -60 -13 -98 -2
-58 1 -75 18 -96 18 -24 19 -28 5 -47 -27 -40 -108 -110 -120 -105 -6 2 -24
27 -38 56 -24 45 -27 61 -25 141 1 68 7 101 21 130 28 55 66 173 73 227 8 56
9 197 2 260 -2 26 -19 76 -37 113 -26 54 -30 69 -20 81 17 20 27 18 80 -14z
m-2081 -154 c30 -61 31 -68 26 -157 -4 -52 -8 -97 -10 -100 -2 -4 -9 -87 -15
-186 -6 -98 -14 -204 -17 -234 -11 -119 -14 -159 -18 -278 -2 -68 -7 -131 -11
-140 -4 -9 -10 -64 -15 -122 -11 -148 -34 -286 -53 -315 -17 -27 -30 -30 -86
-24 -19 2 -111 4 -205 3 -135 -1 -179 -5 -215 -18 -25 -10 -63 -21 -85 -26
-22 -4 -74 -24 -115 -45 -68 -34 -84 -37 -168 -40 -51 -2 -106 -8 -122 -15
-18 -7 -52 -10 -82 -8 -77 8 -85 22 -89 165 -3 149 -2 204 5 273 4 30 11 105
16 165 11 120 11 123 36 270 9 55 17 111 18 125 1 14 6 41 10 60 10 48 16 103
21 180 18 286 28 333 83 387 82 81 80 80 200 87 56 3 79 0 107 -15 19 -11 44
-19 55 -19 12 0 33 -6 48 -14 15 -7 46 -16 70 -20 24 -3 51 -10 60 -15 40 -23
65 25 42 83 -5 14 -7 33 -4 41 6 14 11 13 41 -5 19 -11 52 -21 74 -22 36 -1
42 -6 59 -38 21 -42 66 -66 104 -56 16 4 35 23 51 50 25 42 73 87 105 98 27 9
48 -11 79 -75z m3921 41 c12 -11 20 -30 20 -48 0 -117 -206 -272 -420 -316
-165 -34 -292 -55 -298 -50 -3 4 -1 16 6 26 7 11 12 31 12 44 0 26 2 27 90 46
30 7 69 18 85 25 17 7 72 26 123 41 50 15 92 31 92 35 0 4 -6 6 -12 5 -7 -2
-31 -6 -53 -10 -22 -4 -69 -13 -105 -21 -224 -48 -225 -48 -240 -10 -12 31 3
74 34 97 13 9 47 26 77 36 30 11 79 29 109 40 69 24 220 62 280 69 25 3 46 6
47 7 1 0 31 1 67 1 48 0 71 -5 86 -17z m967 -181 c6 -13 9 -37 6 -53 -5 -29
-95 -216 -137 -283 -13 -20 -25 -41 -27 -47 -2 -6 -36 -46 -75 -87 -53 -57
-87 -84 -135 -107 -75 -35 -216 -124 -254 -160 -15 -14 -33 -37 -41 -52 -8
-16 -18 -28 -23 -28 -5 0 -31 17 -58 38 -70 55 -180 96 -288 107 -105 10 -149
16 -190 22 -22 4 -47 7 -56 8 -19 2 -79 43 -79 54 0 12 119 63 149 64 14 0 42
-2 61 -6 176 -31 354 -27 494 10 85 22 244 85 255 101 10 13 95 78 118 90 39
21 69 62 45 62 -4 0 -44 -24 -88 -53 -133 -88 -253 -140 -354 -153 -25 -3 -54
-7 -65 -10 -11 -2 -38 -8 -60 -12 -86 -18 -324 3 -341 29 -2 4 5 13 17 20 12
6 50 38 85 70 63 59 64 59 126 60 173 1 251 18 423 91 138 59 201 90 235 117
31 23 86 60 170 114 38 24 75 21 87 -6z m-6617 -220 c41 -22 86 -47 100 -57
40 -27 115 -60 245 -105 l120 -41 -2 -83 c-2 -99 -9 -111 -58 -88 -20 9 -41
17 -48 17 -12 0 -77 32 -189 92 -44 24 -58 26 -58 7 0 -5 21 -21 48 -36 26
-15 52 -32 59 -39 6 -6 59 -35 117 -64 115 -57 109 -49 106 -145 -2 -65 -10
-72 -63 -56 -23 6 -53 15 -67 18 -55 13 -273 175 -285 212 -3 9 -17 30 -31 46
-24 28 -42 58 -120 206 -36 68 -37 123 -3 151 23 19 26 19 129 -35z m3167 -34
c10 -21 10 -36 0 -78 -12 -52 -17 -78 -23 -141 -5 -51 -4 -62 10 -67 9 -4 16
-3 17 1 0 4 2 14 4 22 2 8 8 38 14 65 18 92 22 107 38 131 8 13 23 24 33 24
17 0 18 -13 18 -172 0 -147 3 -183 20 -238 11 -36 23 -77 26 -91 3 -14 31 -49
61 -78 31 -30 54 -58 52 -65 -3 -6 -19 -19 -36 -29 l-32 -19 -52 54 c-29 30
-65 74 -81 98 -22 35 -30 40 -37 28 -14 -25 21 -110 82 -199 18 -27 10 -49
-17 -49 -22 0 -134 111 -156 154 -51 100 -82 306 -52 351 7 11 16 45 18 75 7
71 14 103 33 165 24 75 44 93 60 58z m2263 3 c64 -14 71 -18 81 -43 14 -37 -4
-59 -105 -131 -142 -101 -162 -108 -351 -119 -110 -6 -215 15 -215 42 0 20 41
45 81 50 19 2 70 14 114 26 44 12 114 27 155 35 41 7 76 13 78 13 1 1 2 6 2
12 0 5 -3 8 -8 5 -4 -2 -34 -5 -67 -7 -33 -1 -78 -8 -99 -16 -22 -7 -56 -15
-75 -18 -20 -2 -62 -11 -93 -21 -60 -17 -88 -11 -88 22 0 16 47 60 87 81 33
18 132 53 141 51 4 -1 39 4 77 10 108 19 221 22 285 8z m-515 -340 c112 -23
194 -60 257 -119 67 -60 78 -94 44 -126 -21 -19 -36 -22 -142 -24 -102 -1
-125 2 -159 19 -22 11 -60 26 -85 33 -70 21 -154 67 -169 94 -30 51 16 75 80
42 33 -18 221 -58 246 -53 16 3 -109 57 -185 79 -53 15 -74 46 -46 66 20 15
37 14 159 -11z m1464 -42 c12 -15 26 -45 32 -67 14 -53 14 -178 0 -205 -6 -11
-11 -29 -11 -40 0 -28 -74 -167 -109 -205 -54 -57 -92 -144 -98 -222 -6 -78
-17 -94 -62 -87 -25 3 -33 11 -46 51 -9 25 -23 61 -31 79 -8 18 -18 61 -23 95
-5 35 -16 80 -25 101 -9 21 -16 64 -16 95 1 77 34 219 57 240 10 10 35 36 55
59 47 53 74 67 94 51 20 -17 18 -40 -21 -209 -19 -84 -33 -156 -29 -161 10
-17 21 0 27 46 4 25 25 98 47 163 36 108 47 150 49 194 3 50 76 65 110 22z
m-2944 -81 c14 -32 48 -81 76 -109 53 -54 53 -65 -2 -79 -22 -5 -30 -1 -46 22
-39 55 -73 132 -77 177 -7 66 16 60 49 -11z m1985 22 c108 -7 283 -46 295 -65
4 -6 23 -17 43 -25 84 -36 159 -120 147 -167 -11 -42 -62 -59 -178 -59 -56 1
-111 3 -123 5 -18 4 -80 12 -150 21 -19 3 -68 24 -119 52 -11 6 -35 17 -52 23
-35 13 -42 27 -18 36 8 4 15 13 15 21 0 16 2 16 150 -2 25 -4 74 -13 110 -22
36 -9 77 -17 92 -19 14 -2 30 -5 35 -6 4 -2 10 1 13 6 7 12 -118 54 -200 66
-36 6 -90 18 -120 26 -53 15 -57 18 -72 62 -19 52 -12 64 32 57 14 -2 59 -7
100 -10z m-5216 -151 c10 -4 16 -18 16 -41 0 -40 25 -143 45 -188 12 -29 21
-73 31 -159 5 -45 8 -51 24 -41 10 6 10 19 -4 95 -20 111 -38 220 -38 240 -2
59 16 64 94 24 50 -25 50 -26 43 -62 -4 -20 -9 -53 -11 -72 -1 -19 -8 -69 -14
-110 -24 -160 -12 -440 20 -440 15 0 19 -29 7 -60 -13 -35 -46 -48 -81 -32
-21 9 -24 18 -25 75 -2 94 -31 170 -100 257 -60 76 -111 222 -111 318 0 49 22
148 40 183 11 19 35 24 64 13z m4599 -29 c32 -19 62 -35 66 -35 19 0 186 -178
220 -234 8 -13 11 -31 8 -40 -7 -19 -38 -21 -55 -4 -15 15 -77 38 -122 45 -19
3 -66 16 -105 30 -160 57 -179 63 -199 63 -28 1 -106 36 -106 49 0 5 -3 16 -6
25 -15 40 78 34 209 -12 31 -12 57 -19 57 -16 0 2 13 -2 30 -11 37 -19 41 -19
33 3 -10 25 -30 38 -106 68 -44 17 -86 26 -120 25 -67 0 -87 6 -87 29 0 36 38
50 135 50 85 0 93 -2 148 -35z m470 -94 c51 -16 103 -33 116 -36 23 -7 147
-126 177 -171 8 -11 18 -42 24 -70 5 -27 12 -60 14 -73 6 -27 -19 -81 -37 -81
-7 0 -23 7 -36 16 -13 9 -37 20 -55 24 -17 5 -47 14 -66 21 -19 6 -47 16 -61
21 -76 27 -259 227 -259 284 0 27 62 11 148 -40 46 -27 79 -41 81 -34 2 6 -5
17 -15 24 -26 17 -89 64 -121 90 -17 14 -24 26 -20 37 8 21 2 22 110 -12z
m-2127 -143 c13 -14 24 -31 24 -36 0 -15 -70 -73 -81 -67 -5 4 -9 19 -9 35 0
15 -8 55 -18 87 -26 81 -18 96 26 47 19 -21 45 -51 58 -66z m2750 24 c44 -23
63 -58 88 -162 29 -124 26 -200 -9 -277 -8 -17 -15 -35 -16 -40 0 -8 -88 -150
-151 -246 -21 -31 -57 -70 -80 -86 -59 -42 -80 -62 -101 -93 -19 -30 -41 -29
-58 3 -11 21 21 108 47 130 8 6 14 18 14 26 0 8 9 34 20 59 40 87 35 201 -13
268 -32 45 -30 94 5 138 29 37 30 37 58 23 33 -17 66 -57 86 -103 7 -18 18
-31 24 -27 34 21 -20 125 -114 219 -51 51 -65 72 -71 106 -9 52 0 61 68 77 70
16 155 10 203 -15z m-1168 -64 c78 -43 101 -64 159 -147 60 -85 93 -162 93
-217 0 -67 -38 -144 -103 -211 -28 -29 -55 -59 -59 -68 -16 -27 -28 -16 -28
24 0 22 -9 60 -19 84 -33 76 -147 142 -266 153 -83 8 -174 66 -176 111 0 10
-2 29 -5 42 -6 31 38 99 69 106 77 20 372 -177 393 -262 4 -12 11 -23 16 -23
6 0 7 11 3 27 -23 92 -94 176 -193 228 -37 20 -82 48 -99 63 -31 26 -32 29
-22 63 14 46 51 68 112 69 38 0 64 -9 125 -42z m299 -104 c38 -18 83 -94 83
-139 0 -15 4 -24 9 -21 9 6 8 27 -5 104 -8 47 2 54 33 20 22 -25 54 -128 48
-156 -31 -156 -41 -194 -60 -232 -13 -25 -28 -58 -34 -73 -6 -16 -16 -27 -22
-25 -11 4 -46 102 -44 123 1 13 15 101 21 128 7 34 -15 123 -39 159 -39 59
-56 128 -30 128 3 0 21 -7 40 -16z m434 -160 c45 -22 101 -87 127 -144 25 -55
30 -103 18 -172 -8 -51 -96 -219 -153 -293 -5 -6 -21 -28 -38 -50 -16 -22 -66
-80 -110 -130 -86 -97 -195 -230 -195 -240 0 -3 -13 -24 -30 -46 -27 -38 -40
-76 -46 -139 -1 -14 -2 -28 -3 -32 -2 -19 -33 -5 -84 38 -31 25 -59 55 -63 67
-4 11 -6 68 -5 125 1 92 10 145 38 212 3 8 7 21 9 28 1 7 15 34 31 60 15 26
31 56 36 66 4 10 30 57 58 103 102 168 161 312 195 473 9 39 23 51 45 39 22
-11 56 -73 64 -115 7 -40 8 -154 1 -184 -3 -14 -8 -37 -10 -53 -5 -31 -42
-125 -91 -233 -33 -73 -34 -93 -4 -71 41 30 120 200 133 287 25 153 25 239 3
302 -38 113 -38 108 -14 118 24 9 47 5 88 -16z m-1277 -109 c3 -8 -11 -35 -31
-62 -36 -47 -96 -164 -99 -193 -1 -8 -4 -38 -8 -66 -6 -40 -4 -53 9 -64 8 -7
17 -11 19 -9 5 7 66 139 66 144 0 2 15 37 34 77 18 40 37 84 41 98 11 37 24
49 61 56 68 13 115 -46 108 -133 -5 -67 -15 -92 -63 -156 -21 -28 -42 -62 -46
-75 -4 -13 -27 -46 -51 -73 -24 -27 -55 -72 -69 -99 -14 -28 -40 -60 -59 -72
-32 -21 -96 -125 -96 -155 0 -7 -9 -17 -19 -22 -14 -8 -22 -7 -32 6 -8 8 -14
21 -14 27 0 6 -12 36 -27 66 -66 138 -54 355 26 468 18 26 41 62 51 81 18 35
130 154 155 164 26 10 38 8 44 -8z m372 -116 c19 -16 23 -61 9 -104 -17 -52
-25 -125 -15 -150 7 -19 7 -19 18 2 7 12 12 33 12 46 0 14 7 30 15 37 8 7 15
21 15 30 0 10 12 33 26 50 20 23 34 30 53 28 23 -3 27 -10 39 -62 l13 -58 -40
-63 c-44 -69 -74 -157 -76 -223 0 -25 -8 -51 -19 -63 -16 -19 -19 -20 -33 -6
-9 8 -32 64 -53 124 -20 59 -47 128 -60 153 -19 37 -23 60 -23 136 0 119 15
149 71 139 21 -4 42 -11 48 -16z m-903 -60 c19 -26 13 -47 -42 -156 -43 -85
-53 -137 -26 -127 8 3 19 22 25 43 10 38 60 118 103 163 31 33 70 44 104 29
24 -11 25 -14 19 -71 -9 -78 -33 -134 -101 -225 -30 -41 -55 -78 -55 -83 0 -4
-12 -24 -26 -43 -14 -19 -40 -63 -59 -99 -46 -91 -122 -190 -146 -190 -29 0
-36 30 -47 195 -22 310 7 428 132 543 52 48 95 56 119 21z m1303 -61 c-6 -31
-10 -37 -101 -151 -59 -73 -73 -103 -56 -120 13 -13 41 16 133 138 12 17 27
33 33 37 15 11 25 -27 15 -61 -10 -38 -75 -145 -110 -186 -15 -16 -39 -61 -55
-100 -26 -61 -29 -81 -28 -158 1 -49 8 -103 14 -121 12 -34 7 -66 -9 -66 -5 0
-21 17 -34 38 -14 20 -38 51 -52 67 -51 57 -58 81 -53 174 6 93 13 142 27 181
4 14 11 37 14 51 6 27 72 131 87 137 5 2 32 33 61 70 89 113 128 137 114 70z
m-1692 -124 c22 -8 20 -27 -5 -50 -35 -31 -53 -77 -66 -167 -7 -55 8 -84 17
-32 7 37 16 65 44 137 12 30 35 40 60 26 15 -8 16 -25 12 -149 -5 -111 -3
-148 9 -176 27 -65 16 -125 -37 -193 -54 -69 -145 -76 -148 -10 -3 55 -12 83
-42 142 -36 70 -39 93 -22 218 8 69 66 180 117 226 41 37 39 37 61 28z m1146
-29 c0 -7 -6 -20 -13 -27 -7 -7 -20 -33 -29 -58 -9 -25 -24 -65 -33 -90 -17
-46 -29 -170 -16 -170 11 0 89 122 96 152 10 38 29 52 54 39 44 -24 39 -102
-15 -253 -8 -21 -12 -38 -9 -38 3 0 -4 -15 -14 -34 -19 -33 -30 -97 -36 -206
-5 -78 -10 -96 -47 -157 -25 -42 -41 -56 -75 -69 -35 -14 -49 -15 -69 -5 -23
10 -25 15 -18 39 4 15 7 68 5 117 -5 195 -4 393 1 451 10 99 97 262 166 309
36 25 52 25 52 0z m-580 -221 c9 -23 3 -39 -44 -119 -63 -108 -69 -123 -72
-190 -2 -58 12 -93 29 -76 6 6 12 21 13 34 3 54 27 138 45 161 26 33 63 34 83
3 14 -20 14 -29 0 -77 -8 -30 -15 -88 -15 -129 0 -41 -4 -95 -10 -120 -6 -25
-12 -59 -14 -74 -12 -90 -66 -176 -113 -178 -9 0 -25 -2 -35 -4 -10 -2 -24 7
-33 21 -16 23 -15 56 1 130 4 19 1 53 -8 85 -27 96 -50 213 -50 254 0 42 18
83 84 193 64 106 119 140 139 86z m305 -116 c-4 -23 -8 -146 -9 -272 l-2 -231
-27 -53 c-37 -70 -91 -155 -110 -171 -19 -15 -74 -18 -88 -4 -14 14 -14 75 0
163 7 41 14 122 16 180 6 175 13 210 41 210 11 0 14 -16 14 -74 0 -70 10 -100
25 -76 7 11 9 22 19 105 6 52 26 135 37 157 5 10 9 23 9 30 0 27 40 78 61 78
19 0 20 -4 14 -42z m441 -19 c0 -25 3 -50 7 -56 10 -17 -31 -23 -47 -7 -16 15
-16 22 3 77 17 50 36 42 37 -14z m-1522 -125 c12 -11 13 -20 6 -34 -12 -23
-79 -63 -135 -80 -22 -7 -70 -28 -107 -47 -37 -18 -81 -36 -97 -39 -32 -7 -61
8 -61 30 0 15 83 56 112 56 37 0 108 32 182 82 39 26 74 47 78 47 4 1 14 -6
22 -15z m1546 -30 c9 -22 6 -32 -15 -60 -35 -45 -53 -92 -51 -131 2 -50 18
-44 51 21 33 64 61 82 99 65 48 -22 58 -82 26 -169 -29 -79 -78 -147 -130
-179 -90 -55 -211 -78 -244 -46 -21 21 -10 43 31 60 25 11 39 26 54 61 21 46
25 72 33 211 5 82 29 160 54 179 9 8 32 14 50 14 26 0 34 -5 42 -26z m-1162
-80 c41 -20 44 -25 26 -58 -16 -33 -18 -72 -4 -81 6 -4 16 6 23 22 31 70 59
115 67 107 5 -5 11 -27 14 -49 3 -22 8 -51 11 -65 5 -23 -3 -31 -74 -78 -102
-67 -113 -64 -105 29 5 53 3 79 -11 114 -27 71 -10 91 53 59z"/>
<path d="M5244 7841 c-33 -21 -77 -55 -97 -75 -33 -32 -35 -38 -26 -65 6 -16
17 -32 25 -35 22 -9 54 12 54 34 0 42 32 86 91 122 32 21 59 42 59 48 0 21
-47 9 -106 -29z"/>
<path d="M4627 7863 c-4 -3 2 -20 12 -37 28 -46 54 -144 53 -203 0 -44 3 -53
20 -59 35 -11 62 27 62 88 0 63 -21 111 -76 173 -38 43 -57 53 -71 38z"/>
<path d="M5636 7808 c-35 -9 -86 -46 -86 -63 0 -22 28 -44 51 -40 28 6 148 54
181 73 53 31 43 41 -42 39 -43 -1 -90 -5 -104 -9z"/>
<path d="M4090 7785 c0 -8 4 -15 8 -15 5 0 23 -13 41 -29 33 -29 66 -37 166
-41 21 0 45 -6 52 -12 10 -8 17 -8 26 1 19 19 -39 60 -85 61 -21 0 -72 11
-114 25 -90 29 -94 30 -94 10z"/>
<path d="M3642 7262 c4 -20 33 -23 33 -3 0 8 -8 15 -18 17 -12 2 -17 -3 -15
-14z"/>
<path d="M6275 7343 c-45 -11 -61 -43 -21 -43 27 0 59 26 51 41 -4 5 -7 8 -8
8 -1 -1 -11 -4 -22 -6z"/>
<path d="M4752 6379 c-45 -17 -54 -111 -14 -152 11 -10 38 -20 62 -23 84 -8
130 -84 114 -189 -8 -59 -17 -63 -209 -81 -82 -7 -129 -24 -144 -52 -29 -54 1
-89 60 -71 19 6 48 13 64 15 17 3 68 13 115 21 121 23 198 27 244 13 23 -7 54
-15 70 -17 16 -3 39 -8 50 -12 12 -4 44 -9 72 -10 45 -2 54 1 73 25 22 28 27
59 12 69 -17 10 -114 26 -210 35 -59 5 -97 13 -102 22 -5 7 -9 48 -9 91 0 64
3 80 20 97 29 29 63 40 102 34 36 -6 101 24 112 52 6 17 -28 122 -45 138 -8 8
-16 4 -27 -12 -46 -63 -113 -121 -149 -128 -60 -11 -122 11 -175 64 -27 25
-48 52 -48 59 0 18 -12 22 -38 12z"/>
<path d="M4848 5778 c-55 -7 -97 -27 -112 -51 -16 -25 7 -37 50 -26 19 5 49
13 68 18 49 12 206 6 239 -9 24 -12 30 -12 38 1 13 20 11 26 -12 48 -32 30
-143 38 -271 19z"/>
<path d="M5865 5676 c-15 -30 -41 -67 -56 -82 -16 -15 -29 -33 -29 -40 0 -23
41 -2 91 47 38 37 49 55 49 78 0 17 0 34 1 39 0 4 -6 8 -14 10 -9 2 -25 -19
-42 -52z"/>
<path d="M6066 5506 c-57 -85 -66 -106 -43 -106 34 0 75 41 105 104 37 78 39
86 13 86 -14 0 -38 -27 -75 -84z"/>
<path d="M6282 5378 c-30 -44 -62 -102 -62 -113 0 -3 13 1 30 10 18 9 40 35
55 65 43 85 27 111 -23 38z"/>
<path d="M6432 5164 c-23 -30 -42 -56 -42 -59 0 -27 83 45 94 82 13 41 -10 31
-52 -23z"/>
<path d="M6547 4963 c-4 -3 -7 -13 -7 -21 0 -7 -9 -25 -20 -39 -23 -30 -26
-45 -7 -37 34 13 81 104 54 104 -7 0 -17 -3 -20 -7z"/>
<path d="M6604 4642 c-17 -12 -54 -78 -54 -97 0 -17 1 -17 21 1 11 10 28 34
37 54 9 19 18 38 20 43 5 9 -10 9 -24 -1z"/>
<path d="M6505 4264 c-17 -13 -36 -24 -42 -24 -7 0 -13 -4 -13 -10 0 -24 74
-1 89 29 16 30 0 32 -34 5z"/>
<path d="M5924 3333 c-21 -66 -78 -165 -100 -173 -20 -8 -44 -54 -33 -64 2 -2
27 5 56 15 64 25 109 87 119 166 5 45 3 53 -15 63 -18 9 -22 8 -27 -7z"/>
<path d="M4090 5723 c1 -21 36 -108 45 -111 14 -4 14 49 -2 85 -7 18 -20 33
-28 33 -8 0 -15 -3 -15 -7z"/>
<path d="M3880 5525 c0 -9 11 -38 25 -65 24 -47 46 -62 59 -41 7 11 -31 103
-47 113 -20 13 -37 9 -37 -7z"/>
<path d="M4393 4588 c-6 -7 -16 -30 -22 -50 -7 -20 -26 -65 -43 -100 -16 -35
-32 -73 -34 -85 -4 -20 0 -23 26 -23 26 0 33 6 46 35 14 33 17 35 64 35 47 0
52 -2 71 -34 15 -26 26 -34 41 -31 11 3 23 7 26 9 7 8 -38 108 -59 132 -10 11
-19 25 -19 30 0 6 -9 29 -20 52 -15 32 -26 42 -44 42 -13 0 -28 -6 -33 -12z
m45 -146 c-28 -5 -33 4 -18 35 l13 28 12 -30 c12 -27 12 -30 -7 -33z"/>
<path d="M3817 4563 c-55 -4 -59 -6 -72 -36 -13 -32 -28 -133 -29 -197 -1 -33
1 -35 29 -33 114 7 115 7 115 30 0 19 -6 22 -42 25 -36 2 -44 7 -46 26 -2 12
0 22 5 22 34 2 90 13 97 20 18 18 -3 40 -38 40 -61 0 -53 34 9 38 16 1 38 11
49 22 16 16 17 22 6 34 -7 9 -15 15 -19 14 -3 -1 -32 -3 -64 -5z"/>
<path d="M4221 4536 c-12 -18 -21 -37 -21 -41 0 -16 -62 -105 -74 -105 -6 0
-22 24 -35 53 -51 114 -53 117 -78 117 -28 0 -28 -1 -2 -69 25 -66 64 -140 89
-165 27 -28 50 -13 101 67 77 119 91 146 85 162 -10 26 -43 17 -65 -19z"/>
<path d="M4114 4228 c-34 -11 -94 -90 -94 -124 0 -48 14 -86 45 -120 31 -34
34 -35 86 -28 30 3 64 12 75 20 49 30 84 128 56 156 -6 6 -28 8 -56 4 -36 -6
-46 -11 -46 -27 0 -12 7 -19 19 -19 24 0 31 -19 18 -45 -16 -31 -39 -43 -72
-39 -46 6 -74 56 -61 108 9 35 61 84 94 88 16 2 28 10 30 21 3 13 -3 17 -30
16 -18 -1 -47 -5 -64 -11z"/>
<path d="M4449 4207 c-1 -18 -3 -79 -4 -135 -2 -118 -4 -115 93 -126 49 -5 52
-4 58 19 9 36 1 50 -32 51 -68 2 -74 4 -74 23 0 26 20 40 63 43 28 1 37 6 37
20 0 10 -6 19 -12 19 -7 1 -20 3 -28 4 -8 1 -21 3 -27 4 -7 0 -13 12 -13 26 0
20 5 25 28 26 15 1 38 2 52 3 20 1 25 6 25 26 0 24 -2 25 -82 27 l-83 2 -1
-32z"/>
<path d="M3850 4196 c-6 -8 -11 -36 -9 -63 2 -67 0 -83 -11 -83 -18 0 -50 34
-60 66 -13 37 -49 52 -67 28 -7 -10 -11 -56 -10 -132 2 -107 4 -117 21 -120
27 -6 46 24 39 61 -5 22 -1 33 12 43 15 11 23 9 54 -16 20 -16 47 -31 61 -32
21 -3 26 2 29 27 1 17 -3 76 -10 133 -13 102 -22 119 -49 88z"/>
<path d="M4081 3872 c-19 -9 -38 -28 -43 -41 -7 -20 -1 -30 37 -69 59 -59 58
-86 -2 -90 -50 -4 -65 -27 -27 -44 43 -20 105 8 122 54 19 50 9 85 -33 110
-40 23 -39 35 6 36 43 1 45 7 16 36 -31 31 -32 31 -76 8z"/>
<path d="M4564 3847 c-28 -8 -35 -18 -59 -86 -54 -153 -55 -159 -39 -175 15
-16 44 -11 44 6 0 5 9 23 21 39 30 42 73 41 85 -3 7 -23 16 -33 29 -33 18 0
20 6 18 54 -1 55 -14 109 -40 168 -17 40 -21 42 -59 30z m32 -109 c2 -19 -3
-27 -17 -31 -14 -4 -19 0 -19 13 0 51 31 66 36 18z"/>
<path d="M4261 3835 c-39 -17 -33 -32 14 -37 l30 -3 5 -100 c5 -99 5 -100 30
-100 23 0 26 4 32 60 3 33 4 75 2 93 -4 27 -1 34 18 41 13 5 26 7 29 5 4 -2
12 2 18 10 18 22 -12 38 -81 42 -43 3 -74 0 -97 -11z"/>
<path d="M3883 3828 c-11 -14 -23 -93 -26 -172 -2 -37 2 -51 15 -60 14 -8 21
-7 35 6 13 13 18 40 21 106 5 108 -14 159 -45 120z"/>
<path d="M3637 3803 c-3 -5 -8 -58 -12 -119 -7 -107 -6 -113 13 -123 29 -16
78 -14 113 5 41 20 24 45 -26 37 -48 -8 -62 28 -40 97 16 46 -2 110 -30 110
-7 0 -16 -3 -18 -7z"/>
<path d="M4244 3518 c-5 -7 -9 -56 -10 -109 -3 -85 0 -99 19 -128 12 -17 32
-34 44 -37 25 -7 118 40 129 65 4 9 8 53 9 99 2 84 -11 122 -39 122 -19 0 -24
-25 -19 -96 4 -53 1 -65 -19 -88 -25 -29 -57 -28 -59 3 0 9 -1 49 -2 89 -2 52
-7 76 -17 82 -20 13 -27 12 -36 -2z"/>
<path d="M4571 3511 c-15 -4 -34 -23 -48 -50 -25 -49 -21 -66 28 -111 32 -30
39 -49 27 -73 -7 -13 -19 -17 -49 -15 -25 1 -43 -3 -49 -12 -11 -18 -2 -40 19
-42 9 0 23 -2 31 -3 26 -2 84 16 102 32 23 20 33 75 19 102 -7 11 -25 28 -42
36 -24 13 -30 22 -27 42 2 21 11 29 36 35 31 8 39 22 24 44 -10 16 -43 23 -71
15z"/>
<path d="M4033 3483 c-17 -2 -37 -11 -43 -18 -14 -17 -14 -192 0 -229 9 -25
26 -26 163 -17 4 1 7 9 7 19 0 16 -8 19 -51 18 -28 -1 -57 3 -65 9 -18 13 -8
44 15 47 9 0 21 2 26 3 6 2 22 3 38 4 20 1 27 6 27 21 0 22 -4 23 -67 20 -33
-1 -43 2 -44 14 -1 9 -2 22 -3 29 -5 28 13 43 53 44 52 2 66 10 50 29 -11 13
-38 15 -106 7z"/>
<path d="M3605 3408 c-2 -13 -4 -48 -4 -78 1 -30 -1 -80 -4 -110 -5 -51 4 -80
24 -80 9 0 31 68 35 109 4 37 26 44 44 16 22 -37 39 -38 58 -5 24 42 45 34 54
-19 9 -53 11 -55 42 -47 25 6 25 7 20 99 -7 131 -9 136 -40 132 -15 -1 -31
-10 -36 -18 -4 -9 -20 -30 -34 -46 -31 -38 -52 -30 -86 29 -27 46 -64 55 -73
18z"/>
<path d="M2489 4432 l-35 -17 0 -95 c1 -52 -3 -109 -7 -126 -6 -24 -3 -36 12
-55 26 -32 43 -16 56 54 10 50 11 52 45 55 47 4 100 32 105 57 16 69 14 78
-15 105 -45 42 -103 50 -161 22z m104 -61 c14 -2 7 -28 -12 -45 -11 -10 -30
-16 -42 -14 -18 2 -23 9 -22 31 1 15 1 29 2 31 1 4 50 2 74 -3z"/>
<path d="M3103 4439 c-9 -9 -6 -21 11 -48 47 -75 47 -71 10 -146 -19 -38 -34
-75 -34 -82 0 -25 26 -13 69 33 52 55 76 54 110 -6 29 -51 68 -80 82 -59 5 8
7 20 4 27 -3 8 -8 26 -11 40 -4 15 -13 34 -21 43 -29 34 -26 67 12 106 63 65
34 107 -32 47 -61 -55 -76 -54 -129 5 -49 55 -54 57 -71 40z"/>
<path d="M2847 4393 c-8 -10 -25 -43 -37 -73 -12 -30 -26 -60 -31 -66 -5 -7
-12 -20 -14 -30 -3 -11 -10 -38 -17 -61 -6 -23 -9 -45 -5 -49 12 -12 57 14 57
33 1 32 23 49 62 47 54 -2 66 -9 82 -49 16 -37 27 -43 44 -22 7 9 5 29 -10 72
-11 33 -22 82 -25 110 -9 87 -65 133 -106 88z m53 -115 c0 -24 -4 -28 -30 -28
-34 0 -36 6 -14 58 15 35 16 36 30 18 8 -11 14 -32 14 -48z"/>
<path d="M2931 4041 c-20 -13 -11 -288 10 -302 21 -14 146 -4 174 15 34 23 41
60 19 101 -16 31 -17 35 -1 59 23 35 21 70 -7 102 -21 25 -31 28 -102 31 -43
2 -85 -1 -93 -6z m147 -79 c2 -16 -3 -25 -19 -31 -38 -13 -59 -2 -59 31 0 28
2 29 38 26 30 -2 38 -7 40 -26z m-3 -131 c10 -34 -4 -51 -45 -51 -42 0 -57 19
-40 51 15 26 76 27 85 0z"/>
<path d="M3261 4016 c-13 -15 -18 -226 -6 -245 6 -11 32 -10 50 1 10 6 10 219
0 246 -6 16 -30 15 -44 -2z"/>
<path d="M2758 4013 c-22 -6 -26 -24 -31 -141 -5 -104 -1 -132 19 -132 23 0
40 38 43 92 1 29 6 67 11 83 10 33 0 97 -15 101 -6 1 -18 0 -27 -3z"/>
<path d="M2520 3998 c-19 -5 -48 -12 -65 -15 -38 -8 -77 -33 -72 -47 2 -6 19
-13 38 -16 33 -5 34 -7 39 -55 3 -27 2 -72 -1 -98 -7 -60 7 -83 44 -73 26 6
27 10 28 74 1 37 1 70 0 75 -1 4 -2 26 -3 48 -1 45 11 59 53 59 14 0 34 6 45
14 41 31 -30 53 -106 34z"/>
<path d="M3164 3680 c-29 -11 -31 -21 -28 -130 2 -118 0 -110 23 -110 20 0 31
18 31 50 0 21 23 32 48 23 9 -4 32 -24 50 -45 19 -21 40 -38 48 -38 25 0 15
48 -18 86 l-33 37 23 15 c30 20 32 96 3 112 -23 12 -117 12 -147 0z m92 -65
c8 -20 -13 -45 -38 -45 -24 0 -34 26 -18 45 16 19 49 19 56 0z"/>
<path d="M2934 3657 c-31 -9 -52 -45 -94 -157 -7 -19 -17 -39 -22 -45 -13 -15
-9 -52 7 -59 10 -3 24 8 41 34 27 40 40 45 104 40 14 -1 35 -12 48 -25 12 -14
29 -22 37 -19 19 7 19 3 -4 72 -10 31 -22 74 -25 94 -9 50 -49 78 -92 65z m30
-93 c12 -31 6 -44 -19 -44 -28 0 -28 0 -15 34 11 29 25 34 34 10z"/>
<path d="M2619 3593 c-33 -76 -57 -82 -94 -23 -27 43 -69 70 -84 54 -5 -5 -11
-25 -14 -44 -2 -20 -11 -49 -19 -65 -24 -47 -43 -161 -29 -170 5 -3 23 6 39
20 22 18 32 39 42 85 7 35 18 59 24 57 6 -2 22 -24 35 -50 32 -61 54 -62 83
-2 12 25 27 45 32 45 13 0 36 -47 36 -72 0 -22 27 -35 41 -21 14 14 -11 202
-29 220 -24 24 -42 14 -63 -34z"/>
<path d="M3068 3353 c-32 -3 -51 -10 -56 -21 -5 -9 -9 -63 -11 -119 -3 -116 1
-121 76 -117 61 3 93 12 93 28 0 11 -12 13 -49 10 -57 -5 -66 3 -57 52 7 32 9
34 40 31 44 -5 77 8 70 28 -4 9 -19 15 -39 15 -70 0 -65 50 7 59 29 4 43 11
43 21 0 16 -33 20 -117 13z"/>
<path d="M2654 3310 c-102 -66 -47 -215 83 -224 58 -4 92 10 99 41 13 50 -5
59 -68 34 -53 -20 -106 20 -86 65 14 30 49 44 92 37 31 -5 36 -3 36 15 0 15
-12 24 -49 36 -63 20 -69 20 -107 -4z"/>
<path d="M1354 8334 c-16 -19 -44 -54 -62 -77 -52 -66 -121 -144 -189 -216
-35 -36 -63 -74 -63 -84 0 -10 19 -37 43 -60 24 -23 59 -63 78 -89 33 -45 52
-58 63 -40 3 5 -13 34 -36 66 -35 50 -41 65 -41 109 0 70 26 127 57 127 26 0
118 -62 186 -125 25 -23 61 -53 80 -67 19 -14 53 -43 75 -64 22 -22 63 -58 90
-81 28 -23 65 -56 84 -72 19 -17 38 -31 41 -31 17 0 30 -55 24 -96 -9 -59 11
-58 62 1 22 25 63 71 92 103 28 31 52 62 52 68 0 19 -12 24 -31 13 -31 -16
-88 1 -133 40 -63 53 -103 85 -183 143 -39 29 -87 67 -106 85 -19 17 -57 47
-83 67 -27 19 -71 58 -97 85 -53 56 -53 74 0 108 51 33 143 36 201 5 50 -26
62 -27 62 -8 0 14 -201 126 -226 126 -6 0 -25 -16 -40 -36z"/>
<path d="M8816 7940 c-16 -5 -53 -33 -82 -61 -68 -67 -74 -96 -80 -341 -4
-218 -13 -254 -72 -283 -49 -24 -110 -27 -142 -5 -14 9 -33 20 -43 23 -19 7
-77 93 -77 116 0 24 20 83 48 138 46 92 -6 99 -95 13 -65 -63 -74 -86 -39
-102 18 -8 30 -24 37 -52 24 -89 72 -144 162 -187 82 -38 147 -39 202 -3 81
54 125 109 141 174 4 19 10 42 12 50 3 8 4 94 3 191 -1 96 2 187 8 201 23 62
119 91 176 54 31 -20 76 -90 85 -131 8 -39 -14 -106 -46 -135 -34 -33 -32 -60
5 -60 20 0 42 12 68 36 21 20 50 45 66 56 36 26 34 44 -8 69 -21 13 -35 29
-35 40 0 11 -14 46 -30 78 -55 105 -158 152 -264 121z"/>
<path d="M881 7761 c-17 -21 -31 -42 -31 -45 0 -4 -23 -41 -51 -82 -28 -42
-57 -90 -65 -107 -15 -34 -24 -50 -61 -108 -23 -34 -30 -69 -15 -69 4 0 24 13
45 29 26 20 45 27 60 23 26 -6 91 -43 207 -117 47 -30 95 -59 108 -65 12 -5
48 -26 80 -47 31 -20 73 -46 92 -56 115 -63 148 -106 134 -177 -12 -56 32 -30
77 46 66 110 95 155 152 239 38 55 57 91 53 102 -8 24 -149 173 -164 173 -19
0 -14 -25 10 -56 12 -16 25 -31 29 -34 15 -12 27 -48 30 -85 3 -50 -10 -123
-22 -131 -6 -3 -14 -16 -19 -29 -5 -13 -17 -28 -28 -34 -18 -10 -21 -9 -92 39
-54 36 -213 130 -219 130 -14 0 -41 36 -41 53 0 9 18 35 41 58 39 39 43 41 92
37 75 -5 72 18 -8 65 -35 20 -68 37 -73 37 -5 0 -17 9 -27 20 -10 11 -29 20
-41 20 -26 0 -24 -15 8 -62 30 -43 21 -74 -43 -151 -9 -12 -132 52 -192 101
-16 12 -34 22 -40 22 -7 0 -25 11 -40 25 -31 30 -28 43 27 103 67 74 162 104
242 76 21 -7 41 -11 45 -8 11 7 -1 34 -15 34 -6 0 -29 9 -51 20 -37 19 -132
50 -153 50 -6 0 -24 -18 -41 -39z"/>
<path d="M9232 7497 c-11 -14 -7 -49 9 -90 7 -15 10 -29 8 -30 -2 -2 -21 -15
-41 -30 -20 -15 -40 -27 -45 -27 -7 0 -104 -50 -153 -80 -8 -5 -35 -18 -60
-31 -55 -26 -85 -43 -176 -96 -38 -23 -82 -45 -97 -48 -15 -4 -30 -11 -33 -16
-7 -12 -91 -11 -99 1 -8 13 -42 13 -50 0 -4 -6 7 -33 24 -60 17 -28 31 -55 31
-60 0 -13 53 -118 72 -144 13 -17 15 -17 31 -1 11 10 17 32 17 60 0 36 5 46
33 67 17 14 59 38 92 54 33 15 67 33 75 40 8 7 69 40 135 74 66 35 147 80 180
101 72 45 126 58 146 35 33 -39 41 -46 55 -46 27 0 9 86 -28 140 -10 13 -18
30 -18 38 0 20 -69 146 -84 154 -8 4 -18 2 -24 -5z"/>
<path d="M592 7278 c-5 -7 -26 -44 -47 -83 -20 -38 -43 -79 -51 -91 -12 -18
-13 -23 0 -33 11 -9 23 -4 61 24 l47 36 96 -46 c53 -26 120 -59 147 -73 64
-34 105 -54 183 -87 44 -20 62 -33 62 -46 0 -14 -8 -19 -27 -20 -40 -1 -83 -5
-123 -12 -56 -10 -130 -18 -195 -23 -33 -3 -82 -7 -110 -10 -27 -3 -93 -8
-145 -11 l-96 -5 -31 -61 c-18 -34 -35 -74 -39 -89 -3 -16 -10 -28 -15 -28 -5
0 -9 -16 -9 -35 0 -43 23 -47 44 -7 27 52 59 74 104 69 39 -5 239 -80 316
-119 22 -10 60 -26 85 -34 94 -30 220 -90 232 -109 7 -11 15 -36 18 -55 10
-55 32 -48 64 21 33 71 57 136 57 155 0 24 -30 15 -57 -17 -22 -26 -32 -30
-67 -27 -23 1 -57 10 -77 20 -19 9 -47 20 -62 23 -15 4 -30 11 -33 16 -3 5
-18 9 -34 9 -16 0 -31 4 -35 9 -3 5 -20 13 -38 17 -17 3 -52 16 -77 27 -68 29
-102 44 -138 57 -35 14 -38 31 -6 37 68 13 363 47 434 49 47 2 129 6 183 10
88 6 100 9 117 31 32 41 3 71 -108 109 -24 8 -90 42 -146 75 -57 32 -108 59
-114 59 -5 0 -79 35 -163 78 l-154 77 -3 40 c-4 61 -11 85 -26 85 -7 0 -18 -6
-24 -12z"/>
<path d="M9433 7074 c-18 -8 -54 -15 -80 -15 -57 -2 -136 -34 -131 -52 6 -17
54 -21 89 -7 24 10 35 9 74 -11 51 -26 105 -90 105 -126 0 -18 -10 -28 -42
-42 -24 -10 -73 -32 -110 -50 -37 -17 -74 -31 -83 -31 -8 0 -23 -4 -33 -9 -9
-5 -39 -17 -67 -26 -27 -9 -72 -27 -100 -40 -80 -38 -212 -85 -238 -85 -13 0
-41 11 -61 25 -64 43 -71 30 -31 -61 14 -32 23 -59 21 -62 -3 -2 6 -21 19 -41
14 -19 25 -44 25 -54 0 -22 18 -57 29 -57 5 0 11 17 15 38 3 21 16 47 28 58
24 22 124 68 171 79 15 4 30 11 33 16 3 5 13 9 22 9 9 0 30 7 47 16 16 8 77
33 135 55 58 22 134 53 170 69 75 33 100 33 117 -1 38 -73 -3 -168 -111 -257
-18 -14 -11 -42 11 -42 8 0 44 24 81 53 37 30 82 62 100 73 52 30 52 34 -22
239 -20 55 -37 102 -38 105 -3 16 -15 44 -49 117 -22 45 -39 86 -39 90 0 5 -6
16 -12 25 -11 14 -17 14 -45 2z"/>
<path d="M250 6382 c-32 -5 -38 -11 -44 -45 -3 -16 -10 -43 -15 -60 -6 -18
-13 -50 -15 -72 -6 -53 -25 -126 -36 -141 -6 -6 -8 -13 -5 -15 2 -3 -3 -29
-11 -59 -8 -30 -16 -62 -18 -70 -2 -8 -7 -27 -11 -42 -6 -25 -5 -28 19 -28 16
0 26 6 26 15 0 24 39 57 58 50 9 -4 40 -9 67 -11 28 -2 61 -8 75 -13 37 -14
110 -30 158 -35 23 -3 50 -9 60 -14 9 -5 41 -12 71 -16 29 -4 73 -14 98 -22
25 -9 74 -22 110 -29 36 -8 70 -18 75 -23 5 -5 10 -27 12 -49 2 -22 6 -45 10
-51 13 -22 35 0 41 41 11 75 45 217 55 232 7 9 23 67 21 73 -1 1 5 18 13 37 8
19 13 35 11 35 -2 0 2 15 10 34 l15 35 -68 44 c-37 25 -84 53 -104 63 -21 10
-38 21 -38 26 0 4 -11 8 -25 8 -38 0 -30 -15 28 -58 67 -50 108 -122 108 -189
-1 -66 -9 -115 -21 -127 -12 -12 -72 -10 -116 5 -17 5 -46 11 -65 13 -50 5
-182 38 -197 49 -16 12 -9 49 16 83 19 26 107 68 127 60 8 -3 19 1 25 9 17 21
-15 45 -61 45 -21 0 -56 6 -76 14 -21 8 -54 17 -73 19 -19 3 -50 9 -67 13 -29
6 -33 4 -33 -15 0 -14 11 -25 34 -35 23 -10 40 -27 55 -59 24 -49 21 -85 -8
-111 -15 -13 -23 -14 -71 -1 -30 7 -90 19 -133 24 -89 12 -147 34 -147 54 0
32 49 157 62 157 4 0 8 6 8 13 0 36 150 122 198 112 29 -5 63 6 59 19 -4 10
-203 16 -267 8z"/>
<path d="M8820 6279 c0 -23 37 -165 49 -189 13 -25 34 -17 43 17 12 45 32 52
134 52 192 -1 224 -7 224 -48 0 -16 7 -48 15 -71 27 -77 21 -101 -32 -135 -56
-34 -134 -74 -146 -75 -5 0 -20 -9 -34 -20 -36 -28 -58 -25 -86 11 -49 63 -58
1 -22 -151 3 -14 9 -43 13 -65 6 -30 12 -40 27 -40 14 0 22 11 30 40 10 35 19
44 77 75 69 37 186 106 253 149 22 14 69 40 104 58 35 18 71 39 80 47 17 15
170 96 183 96 4 0 18 -12 32 -27 21 -22 27 -24 40 -14 9 7 14 16 12 20 -3 4
-7 25 -10 46 -3 22 -13 69 -22 105 -8 36 -18 75 -21 88 -3 13 -12 26 -19 29
-16 6 -46 -15 -39 -27 10 -16 -30 -50 -60 -51 -16 -1 -177 0 -356 0 -323 2
-327 2 -357 25 -17 12 -43 35 -58 49 -32 32 -54 35 -54 6z m819 -144 c2 -5
-12 -18 -30 -28 -18 -11 -44 -28 -58 -38 -13 -10 -30 -19 -37 -19 -7 0 -17 -6
-21 -13 -4 -7 -35 -25 -68 -39 -44 -20 -63 -24 -73 -16 -7 6 -11 17 -8 23 2 7
-2 39 -9 73 -11 55 -11 61 4 65 35 8 296 2 300 -8z"/>
<path d="M85 5771 c-3 -20 -11 -54 -16 -76 -12 -48 -8 -120 6 -119 6 1 15 11
21 23 33 65 54 69 159 25 33 -14 74 -29 90 -33 53 -14 268 -91 320 -116 17 -7
42 -17 58 -20 29 -8 35 -26 15 -43 -7 -6 -42 -15 -78 -21 -36 -7 -83 -18 -105
-25 -22 -8 -53 -18 -70 -22 -16 -4 -32 -8 -35 -9 -3 0 -27 -5 -55 -9 -27 -4
-57 -12 -65 -16 -8 -4 -33 -10 -55 -14 -22 -3 -62 -12 -89 -21 -27 -8 -55 -15
-62 -15 -17 0 -36 36 -41 74 -4 36 -8 40 -28 33 -11 -5 -15 -21 -15 -64 0 -32
-5 -110 -10 -173 -12 -129 -7 -173 18 -168 9 2 18 10 19 18 13 102 40 143 106
161 23 6 54 16 68 21 15 5 51 13 80 18 30 4 101 22 159 39 58 17 121 35 140
41 19 5 53 12 75 14 22 2 53 8 68 15 46 18 82 13 112 -15 27 -25 29 -25 42 -8
7 10 14 43 14 73 2 71 3 80 13 114 5 18 4 32 -4 42 -18 21 -29 19 -42 -9 -13
-30 -33 -39 -56 -26 -16 9 -146 52 -167 56 -6 1 -40 13 -75 27 -36 13 -74 28
-85 32 -11 5 -28 10 -38 12 -10 1 -42 14 -70 27 -29 12 -72 29 -97 36 -25 8
-71 26 -102 42 -44 22 -59 34 -64 56 -10 46 -12 49 -33 55 -17 4 -21 -1 -26
-32z"/>
<path d="M9625 5630 c-75 -17 -129 -76 -191 -208 -85 -184 -109 -224 -150
-254 -54 -39 -116 -45 -157 -16 -43 30 -53 44 -71 100 -21 62 -20 117 3 171
24 56 58 83 116 91 39 6 45 10 45 32 0 21 -5 24 -34 24 -18 0 -47 -5 -63 -11
-17 -5 -50 -11 -73 -12 -55 -3 -69 -22 -52 -70 10 -29 10 -43 -4 -83 -29 -86
-5 -202 53 -255 53 -50 91 -62 193 -63 84 -1 99 2 134 23 83 52 144 135 182
248 25 72 71 166 94 191 29 31 104 31 151 -1 26 -18 39 -37 56 -87 35 -107 16
-185 -58 -224 -26 -14 -54 -26 -62 -26 -21 0 -36 -27 -29 -52 4 -17 10 -19 41
-13 20 4 59 9 86 12 63 7 87 26 74 60 -11 29 -12 87 -1 97 4 4 7 17 8 29 0 12
4 38 8 57 13 64 -40 170 -106 214 -42 27 -133 40 -193 26z"/>
<path d="M502 4209 l-70 -71 27 -30 c34 -40 82 -89 107 -111 20 -17 23 -15 92
55 40 39 72 77 72 84 0 19 -124 144 -142 144 -9 0 -47 -32 -86 -71z"/>
<path d="M9374 4258 c-16 -13 -51 -46 -77 -74 l-47 -51 76 -77 77 -78 60 59
c74 70 86 85 87 99 0 14 -123 144 -136 144 -6 0 -23 -10 -40 -22z"/>
<path d="M8746 3558 c-25 -95 -57 -177 -97 -251 -65 -120 -64 -146 6 -93 17
13 48 31 69 40 36 15 41 15 75 -3 20 -11 61 -27 91 -37 84 -26 198 -74 335
-142 44 -21 96 -44 116 -51 52 -17 74 -70 57 -141 -7 -31 34 -15 53 20 36 67
99 209 99 223 0 8 9 26 21 41 24 30 19 76 -7 76 -9 0 -33 -19 -54 -42 -34 -39
-40 -42 -81 -40 -24 2 -71 16 -104 31 -33 16 -100 46 -150 66 -49 21 -108 49
-130 61 -22 12 -80 36 -130 53 -114 39 -129 55 -121 132 6 47 4 58 -9 63 -25
9 -35 7 -39 -6z"/>
<path d="M1174 3415 c-4 -9 -2 -32 3 -53 17 -68 1 -86 -153 -165 -39 -21 -75
-37 -80 -37 -5 0 -25 -10 -44 -23 -19 -13 -55 -31 -79 -41 -25 -10 -57 -26
-72 -37 -15 -10 -32 -19 -38 -19 -6 0 -40 -14 -76 -31 -91 -43 -104 -43 -159
-9 -84 54 -94 31 -31 -70 25 -41 45 -84 45 -96 0 -13 6 -29 13 -36 8 -7 19
-30 26 -50 15 -45 45 -75 57 -57 4 7 7 33 5 57 -2 38 2 47 32 76 34 32 475
258 563 289 34 12 46 13 78 2 21 -7 47 -23 57 -34 46 -49 58 -7 20 73 -54 114
-91 197 -91 202 0 9 -55 74 -63 74 -4 0 -10 -7 -13 -15z"/>
<path d="M1368 3043 c-1 -4 -2 -37 -2 -72 l-1 -64 -85 -57 c-259 -174 -335
-222 -370 -236 -22 -9 -40 -20 -40 -24 0 -5 -20 -16 -45 -25 -44 -17 -114 -15
-140 4 -5 4 -18 11 -27 14 -31 11 -22 -43 17 -103 19 -30 41 -70 50 -88 12
-25 21 -32 37 -30 18 2 22 10 23 43 1 38 29 94 47 95 4 0 41 23 82 50 41 28
77 50 81 50 9 0 153 98 159 109 9 15 132 81 150 81 23 0 20 -13 -20 -98 -20
-42 -37 -82 -38 -88 -3 -20 -184 -385 -242 -489 -60 -107 -32 -170 48 -108 20
15 83 62 139 103 56 41 122 90 146 108 24 17 47 32 52 32 5 0 15 7 22 16 8 9
32 28 54 42 22 13 47 31 55 38 97 86 133 104 180 90 19 -6 46 -19 59 -28 25
-18 41 -16 41 6 0 14 -79 129 -127 184 -20 24 -33 31 -46 26 -15 -5 -17 -14
-12 -48 9 -58 -14 -110 -57 -132 -18 -9 -51 -33 -74 -53 -23 -20 -73 -58 -113
-86 -40 -27 -79 -58 -88 -67 -19 -21 -52 -23 -59 -4 -3 8 18 63 46 122 29 60
61 132 71 160 10 27 30 65 44 84 14 19 25 40 25 48 0 8 6 26 14 40 8 15 21 43
30 63 9 20 22 42 31 49 31 26 15 85 -50 180 -36 54 -63 79 -67 63z"/>
<path d="M8555 3021 c-45 -20 -110 -92 -170 -186 -75 -117 -97 -150 -120 -175
-30 -34 -37 -56 -20 -70 11 -9 21 -6 45 11 58 43 65 40 321 -132 46 -31 115
-82 152 -113 38 -31 72 -56 76 -56 4 0 25 -15 46 -32 21 -18 50 -42 63 -54 23
-19 30 -47 21 -83 -2 -8 4 -16 13 -18 18 -5 69 65 133 182 21 39 45 78 54 88
13 16 13 19 1 27 -24 15 -30 12 -69 -30 -56 -62 -83 -57 -201 33 -98 76 -102
81 -84 120 9 18 32 44 52 57 33 24 44 25 181 27 183 1 230 18 304 108 26 32
47 63 47 70 0 7 -12 16 -26 19 -20 5 -33 1 -49 -14 -34 -32 -81 -40 -202 -35
-88 5 -120 3 -149 -10 -55 -23 -64 -15 -64 52 0 42 -6 65 -20 83 -11 14 -20
28 -20 32 0 15 -89 98 -115 108 -44 17 -155 12 -200 -9z m137 -130 c52 -22
123 -99 134 -144 13 -52 7 -74 -37 -137 -49 -70 -67 -74 -125 -30 -21 17 -60
44 -87 61 -26 17 -53 39 -60 48 -6 10 -27 26 -44 36 -18 11 -34 25 -34 32 -1
7 -2 19 -3 26 -2 19 56 105 79 116 34 17 130 13 177 -8z"/>
<path d="M8030 2358 c-38 -40 -70 -76 -70 -80 0 -4 -18 -24 -40 -44 -55 -52
-50 -84 10 -62 44 17 69 19 80 6 15 -18 142 -215 166 -258 10 -19 34 -56 52
-82 17 -26 32 -50 32 -53 0 -3 15 -30 34 -59 54 -85 106 -185 106 -205 0 -10
-12 -35 -26 -56 -26 -39 -26 -65 1 -65 27 0 229 193 222 214 -7 21 -35 17 -77
-9 -23 -14 -49 -24 -58 -20 -9 3 -33 30 -52 60 -19 31 -47 72 -62 91 -15 20
-30 45 -33 55 -10 29 21 79 102 164 64 67 75 75 102 70 38 -6 203 -83 213 -98
14 -21 8 -58 -12 -84 -23 -30 -18 -43 15 -43 19 0 37 17 76 70 28 38 58 76 68
82 25 18 71 89 71 110 0 28 -16 29 -70 8 l-52 -21 -62 22 c-67 23 -97 36 -201
85 -38 18 -99 42 -135 54 -36 12 -72 28 -81 36 -8 8 -22 14 -30 14 -8 0 -34
11 -59 24 -25 13 -57 26 -71 29 -43 11 -70 39 -71 75 -1 18 -5 35 -10 38 -5 3
-40 -27 -78 -68z m130 -163 c14 -8 36 -19 50 -25 14 -6 48 -22 75 -35 28 -12
71 -33 96 -44 59 -27 57 -36 -30 -131 -87 -95 -87 -95 -170 45 -13 22 -41 65
-61 95 -42 64 -52 88 -44 101 8 14 56 11 84 -6z"/>
<path d="M7702 2001 c-7 -4 -16 -21 -21 -37 -7 -27 -57 -66 -118 -94 -35 -15
-92 -79 -99 -108 -3 -15 -9 -39 -14 -53 -12 -41 -4 -179 15 -234 52 -154 165
-287 290 -343 43 -20 203 -27 261 -13 58 15 128 71 156 125 16 30 22 63 24
121 2 84 -7 115 -32 115 -11 0 -14 -10 -13 -42 4 -88 -11 -151 -48 -195 -24
-30 -42 -43 -60 -43 -44 0 -187 41 -208 60 -11 9 -38 29 -61 43 -53 33 -152
136 -185 193 -14 24 -26 58 -27 75 0 17 -8 41 -17 55 -23 35 -22 120 2 152 20
27 115 83 142 84 40 0 106 -16 136 -33 31 -19 33 -19 55 -1 31 25 20 53 -32
82 -22 13 -59 40 -81 62 -42 41 -45 42 -65 29z"/>
<path d="M2225 1940 c-4 -12 -2 -26 3 -33 5 -7 19 -33 30 -59 l21 -47 -47 -58
c-26 -31 -58 -68 -72 -82 -14 -15 -49 -53 -79 -86 -30 -33 -71 -78 -91 -100
-20 -22 -58 -67 -84 -100 -51 -63 -100 -105 -126 -105 -8 0 -36 11 -62 25 -92
49 -106 21 -25 -47 28 -25 59 -49 68 -54 9 -5 45 -35 80 -66 35 -31 75 -67 89
-79 43 -37 113 -66 173 -73 32 -4 64 -9 72 -12 7 -3 22 -1 32 4 10 6 35 13 56
16 58 9 154 69 230 144 37 37 67 70 67 75 0 5 9 20 19 33 11 14 27 50 36 82 9
31 21 68 25 82 29 87 19 175 -29 240 -30 42 -28 40 -122 111 -41 31 -109 91
-151 133 -43 42 -84 76 -92 76 -8 0 -18 -9 -21 -20z m223 -204 c33 -18 86 -73
96 -101 16 -40 18 -122 4 -161 -14 -38 -48 -104 -91 -175 -25 -41 -110 -143
-147 -176 -62 -56 -100 -75 -168 -85 -67 -11 -73 -10 -124 15 -75 37 -108 71
-108 113 0 18 64 103 139 184 28 30 51 58 51 61 0 3 12 20 28 37 15 17 43 49
62 72 19 22 59 66 87 97 29 31 55 65 59 75 3 10 9 18 13 18 4 0 18 9 31 20 28
24 33 24 68 6z"/>
<path d="M7155 1571 c-9 -31 -33 -44 -73 -42 -22 1 -59 -9 -94 -25 -51 -24
-60 -33 -89 -90 -47 -94 -49 -153 -7 -234 27 -52 42 -68 85 -92 78 -44 90 -45
328 -36 122 5 141 -1 190 -52 27 -28 30 -38 30 -95 0 -59 -3 -67 -35 -101 -71
-74 -143 -87 -269 -45 -72 23 -90 26 -92 11 -1 -5 -2 -16 -3 -22 -1 -7 13 -30
30 -52 18 -21 40 -53 49 -72 9 -19 25 -38 36 -44 16 -9 22 -6 40 25 23 38 45
54 87 61 15 3 41 9 57 14 40 13 165 133 165 159 0 11 5 23 10 26 6 4 8 10 5
15 -3 5 -7 33 -10 62 -4 65 -43 142 -91 182 -19 16 -61 39 -94 53 -54 21 -68
23 -162 17 -174 -12 -210 -10 -260 11 -64 27 -86 69 -68 129 14 49 30 68 90
108 55 38 114 39 200 4 84 -35 109 -12 60 54 -14 19 -34 47 -43 63 -21 32 -62
37 -72 8z"/>
<path d="M2989 1379 c-55 -12 -137 -47 -171 -72 -85 -61 -167 -153 -201 -227
-20 -41 -39 -87 -42 -103 -4 -15 -10 -29 -14 -32 -4 -2 -6 -47 -3 -100 3 -79
8 -106 30 -153 41 -86 70 -119 131 -150 50 -25 65 -28 140 -25 119 3 187 30
261 104 64 63 127 151 150 209 6 14 15 34 20 45 5 11 11 34 13 50 2 17 7 37
11 46 4 9 5 60 3 115 -4 89 -7 105 -37 157 -55 98 -187 160 -291 136z m158
-77 c18 -13 37 -40 44 -60 14 -42 13 -240 -1 -278 -6 -14 -10 -35 -10 -46 0
-30 -76 -183 -121 -244 -49 -67 -79 -90 -143 -110 -46 -15 -59 -15 -116 -2
l-63 14 -24 65 c-34 94 -33 184 5 354 5 22 19 58 30 80 12 22 22 43 22 47 0
18 84 130 121 161 48 41 59 44 154 44 58 -1 76 -5 102 -25z"/>
<path d="M6473 1238 c-52 -15 -69 -27 -106 -71 -75 -89 -90 -154 -78 -347 4
-58 20 -121 56 -220 21 -57 143 -196 195 -221 25 -12 52 -28 60 -35 24 -20 91
-31 135 -22 111 23 177 82 211 188 37 111 37 109 -15 340 -14 60 -50 143 -82
190 -72 102 -177 190 -226 190 -13 0 -38 6 -56 14 -29 12 -41 11 -94 -6z m127
-141 c114 -69 258 -286 276 -415 13 -89 8 -200 -10 -227 -87 -132 -376 76
-472 339 -8 22 -18 89 -21 147 -5 92 -3 111 15 152 16 37 27 48 54 55 42 11
74 1 158 -51z"/>
<path d="M3465 1181 c-3 -6 13 -27 36 -48 63 -59 63 -59 11 -164 -26 -52 -62
-129 -81 -170 -18 -41 -44 -97 -57 -125 -13 -28 -24 -55 -24 -59 0 -5 -6 -16
-14 -24 -7 -9 -30 -47 -51 -86 -21 -38 -42 -75 -46 -81 -10 -12 -60 -27 -94
-29 -38 -1 -28 -32 17 -50 47 -19 137 -48 181 -59 36 -9 35 10 -3 48 -16 16
-32 37 -35 46 -5 16 29 102 72 185 57 109 138 283 147 315 8 31 28 58 46 62
22 5 46 -174 50 -387 3 -140 34 -170 92 -89 18 25 54 71 79 103 26 31 54 70
62 87 18 33 89 114 100 114 13 0 -9 -230 -32 -345 -5 -22 -9 -47 -10 -55 -1
-35 -20 -117 -32 -142 -11 -25 -18 -28 -59 -28 -102 0 -104 -53 -2 -63 76 -8
123 -15 190 -30 68 -15 112 -11 112 9 0 8 -4 14 -9 14 -5 0 -26 16 -46 34
l-37 35 7 68 c4 37 14 99 22 136 8 37 12 74 10 81 -3 8 -2 17 3 22 4 5 10 44
13 86 3 43 8 82 12 88 4 6 8 27 9 48 2 20 6 51 10 67 30 128 35 135 104 135
48 0 74 23 43 39 -11 6 -28 11 -39 11 -11 0 -35 6 -53 14 -79 33 -78 33 -189
-113 -117 -154 -110 -146 -150 -191 -16 -19 -30 -38 -30 -42 0 -3 -10 -10 -21
-13 -30 -10 -39 9 -39 83 0 35 -5 72 -11 83 -6 11 -12 77 -14 145 -2 69 -7
134 -10 145 -7 21 -53 49 -82 49 -10 0 -40 11 -68 25 -53 26 -80 31 -90 16z"/>
<path d="M6000 1072 c-25 -8 -54 -18 -65 -23 -46 -17 -63 -21 -120 -30 -33 -5
-82 -13 -110 -19 -27 -6 -63 -12 -80 -14 -22 -2 -31 -8 -33 -24 -2 -13 2 -22
10 -23 7 -1 27 -2 43 -3 59 -5 95 -17 96 -34 1 -23 12 -91 25 -152 2 -8 6 -28
8 -45 2 -16 9 -51 15 -77 6 -26 13 -68 17 -95 9 -74 11 -84 24 -138 6 -27 13
-66 15 -85 2 -19 6 -48 10 -63 11 -41 -11 -75 -57 -89 -55 -16 -67 -35 -32
-48 24 -10 51 -8 104 5 18 4 127 28 185 41 100 22 105 24 105 40 0 8 -3 14 -7
15 -5 1 -19 2 -33 3 -88 9 -130 42 -130 100 0 18 -4 36 -10 42 -5 5 -12 31
-14 58 -3 26 -9 53 -14 60 -4 6 -9 34 -11 62 -3 63 12 79 68 69 48 -8 76 -36
90 -92 13 -46 18 -50 45 -30 13 10 15 18 8 37 -5 14 -13 47 -16 74 -4 27 -9
53 -12 58 -3 4 -7 18 -9 30 -14 71 -30 118 -42 118 -7 0 -13 -8 -14 -17 -2
-55 -33 -119 -61 -127 -42 -11 -77 -6 -86 12 -5 9 -12 40 -15 69 -3 29 -8 57
-12 63 -11 17 -35 120 -35 148 0 16 5 33 12 40 13 13 86 16 137 6 33 -7 140
-101 160 -141 7 -13 18 -23 27 -23 22 0 29 28 11 48 -8 9 -18 28 -22 42 -9 30
-85 160 -94 161 -3 0 -13 2 -21 3 -8 1 -35 -4 -60 -12z"/>
<path d="M4610 954 c-19 -7 -43 -13 -52 -13 -35 -2 -134 -57 -173 -96 -52 -52
-102 -147 -111 -210 -3 -27 -11 -61 -16 -75 -30 -75 -29 -171 2 -259 34 -99
61 -144 123 -204 60 -58 91 -75 148 -81 24 -3 62 -7 85 -11 27 -3 51 0 70 10
16 8 33 15 38 15 13 0 116 72 116 81 0 4 11 21 25 38 78 92 124 378 83 506
-55 168 -126 252 -251 294 -44 15 -57 16 -87 5z m57 -86 c24 -17 43 -34 43
-38 0 -3 16 -25 35 -47 19 -23 35 -51 35 -62 0 -12 7 -38 16 -59 9 -20 17 -53
19 -72 1 -19 7 -53 13 -75 13 -50 13 -61 0 -165 -14 -114 -15 -125 -18 -125
-1 0 -4 -13 -6 -30 -6 -33 -54 -89 -98 -112 -36 -19 -106 -19 -143 1 -34 17
-103 90 -103 109 0 7 -12 30 -27 52 -25 37 -36 73 -48 160 -4 22 -11 52 -16
66 -7 19 -7 40 1 69 6 23 10 54 9 68 -1 15 5 44 14 66 9 21 17 42 17 46 0 22
65 131 88 147 74 50 100 50 169 1z"/>
</g>
</svg>
