<?xml version="1.0" standalone="no"?><!DOCTYPE svg PUBLIC "-//W3C//DTD SVG 1.1//EN" "http://www.w3.org/Graphics/SVG/1.1/DTD/svg11.dtd"><svg width="100%" height="100%" viewBox="0 0 32 32" version="1.1" xmlns="http://www.w3.org/2000/svg" xmlns:xlink="http://www.w3.org/1999/xlink" xml:space="preserve" style="fill-rule:evenodd;clip-rule:evenodd;stroke-linejoin:round;stroke-miterlimit:1.41421;"><path d="M32.011,0.011l-8,1l2.438,2.438l-9.5,9.5l-1.063,1.063l2.125,2.125l1.063,-1.063l9.5,-9.5l2.438,2.438l1,-8l-0.001,-0.001ZM2.011,3.011c-0.483,0 -1.047,0.172 -1.438,0.563c-0.391,0.391 -0.563,0.954 -0.563,1.438l0,25c0,0.483 0.172,1.047 0.563,1.438c0.391,0.391 0.954,0.563 1.438,0.563l25,0c0.483,0 1.047,-0.172 1.438,-0.563c0.391,-0.391 0.563,-0.954 0.563,-1.438l0,-15l-3,0l0,14l-23,0l0,-23l15,0l0,-3l-16,0l-0.001,-0.001Z" style="fill:#b90000;fill-rule:nonzero;"/></svg>